<svg width="24" height="24" viewBox="0 0 24 24" fill="none" xmlns="http://www.w3.org/2000/svg">
<path d="M12 7.9996V11.9996M12 15.9996H12.01M3 7.94104V16.0582C3 16.4008 3 16.5721 3.05048 16.7249C3.09515 16.8601 3.16816 16.9842 3.26463 17.0889C3.37369 17.2072 3.52345 17.2904 3.82297 17.4568L11.223 21.5679C11.5066 21.7255 11.6484 21.8042 11.7985 21.8351C11.9315 21.8625 12.0685 21.8625 12.2015 21.8351C12.3516 21.8042 12.4934 21.7255 12.777 21.5679L20.177 17.4568C20.4766 17.2904 20.6263 17.2072 20.7354 17.0889C20.8318 16.9842 20.9049 16.8601 20.9495 16.7249C21 16.5721 21 16.4008 21 16.0582V7.94104C21 7.5984 21 7.42708 20.9495 7.27428C20.9049 7.1391 20.8318 7.01502 20.7354 6.91033C20.6263 6.79199 20.4766 6.70879 20.177 6.54239L12.777 2.43128C12.4934 2.27372 12.3516 2.19494 12.2015 2.16406C12.0685 2.13672 11.9315 2.13672 11.7985 2.16406C11.6484 2.19494 11.5066 2.27372 11.223 2.43128L3.82297 6.54239C3.52345 6.70879 3.37369 6.79199 3.26463 6.91033C3.16816 7.01502 3.09515 7.1391 3.05048 7.27428C3 7.42708 3 7.5984 3 7.94104Z" stroke="black" stroke-width="2" stroke-linecap="round" stroke-linejoin="round"/>
</svg>
