<svg width="24" height="24" viewBox="0 0 24 24" fill="none" xmlns="http://www.w3.org/2000/svg">
<path d="M14.3909 18.0153C14.8197 19.6157 13.8699 21.2607 12.2695 21.6895C10.6691 22.1183 9.02414 21.1686 8.59531 19.5682M10.8914 5.74134C11.1956 5.19404 11.2958 4.53254 11.121 3.87994C10.7636 2.54627 9.39275 1.75482 8.05909 2.11217C6.72542 2.46953 5.93397 3.84037 6.29132 5.17404C6.46619 5.82663 6.88372 6.3494 7.42082 6.67128M16.2358 9.44578C15.8788 8.11364 14.9259 6.99968 13.5866 6.34895C12.2474 5.69822 10.6314 5.56402 9.09437 5.97588C7.55729 6.38774 6.22496 7.31191 5.39048 8.5451C4.556 9.77829 4.28773 11.2195 4.64467 12.5516C5.23524 14.7557 5.12057 16.514 4.74761 17.8502C4.32255 19.373 4.11001 20.1345 4.16743 20.2874C4.23312 20.4623 4.28064 20.5103 4.45488 20.5778C4.60717 20.6368 5.24694 20.4654 6.52648 20.1225L18.3915 16.9433C19.6711 16.6004 20.3109 16.429 20.4132 16.3018C20.5304 16.1562 20.5475 16.0909 20.517 15.9065C20.4902 15.7454 19.9255 15.1922 18.7959 14.086C17.8049 13.1153 16.8264 11.6498 16.2358 9.44578Z" stroke="black" stroke-width="2" stroke-linecap="round" stroke-linejoin="round"/>
</svg>
