<svg width="24" height="24" viewBox="0 0 24 24" fill="none" xmlns="http://www.w3.org/2000/svg">
<path d="M13.744 2.63395L21.272 7.52716C21.538 7.70006 21.671 7.78651 21.7674 7.90183C21.8527 8.00391 21.9167 8.12198 21.9558 8.24914C22 8.39278 22 8.55141 22 8.86867V16.2004C22 17.8805 22 18.7206 21.673 19.3623C21.3854 19.9268 20.9265 20.3858 20.362 20.6734C19.7202 21.0004 18.8802 21.0004 17.2 21.0004H6.8C5.11984 21.0004 4.27976 21.0004 3.63803 20.6734C3.07354 20.3858 2.6146 19.9268 2.32698 19.3623C2 18.7206 2 17.8805 2 16.2004V8.86867C2 8.55141 2 8.39278 2.04417 8.24914C2.08327 8.12198 2.14735 8.00391 2.23265 7.90183C2.32901 7.78651 2.46201 7.70006 2.72802 7.52716L10.256 2.63395M13.744 2.63395C13.1127 2.22364 12.7971 2.01848 12.457 1.93866C12.1564 1.8681 11.8436 1.8681 11.543 1.93866C11.2029 2.01848 10.8873 2.22364 10.256 2.63395M13.744 2.63395L19.9361 6.65886C20.624 7.10596 20.9679 7.32951 21.087 7.61301C21.1911 7.86076 21.1911 8.13998 21.087 8.38773C20.9679 8.67123 20.624 8.89478 19.9361 9.34188L13.744 13.3668C13.1127 13.7771 12.7971 13.9823 12.457 14.0621C12.1564 14.1326 11.8436 14.1326 11.543 14.0621C11.2029 13.9823 10.8873 13.7771 10.256 13.3668L4.06386 9.34188C3.37601 8.89478 3.03209 8.67123 2.91297 8.38773C2.80888 8.13998 2.80888 7.86076 2.91297 7.61301C3.03209 7.32951 3.37601 7.10596 4.06386 6.65886L10.256 2.63395M21.5 19.0004L14.8572 13.0004M9.14282 13.0004L2.5 19.0004" stroke="black" stroke-width="2" stroke-linecap="round" stroke-linejoin="round"/>
</svg>
