<svg width="24" height="24" viewBox="0 0 24 24" fill="none" xmlns="http://www.w3.org/2000/svg">
<path d="M16.2427 4.75708C18.5858 7.10023 18.5858 10.8992 16.2427 13.2424M7.75734 13.2424C5.41419 10.8992 5.41419 7.10023 7.75734 4.75708M4.85829 15.9998C1.02359 12.0891 1.04705 5.81035 4.92869 1.92871M19.0713 1.92871C22.9529 5.81035 22.9764 12.0891 19.1417 15.9998M12 15.9998V8.99976M4.99998 21.9998H19C19.9319 21.9998 20.3978 21.9998 20.7653 21.8475C21.2554 21.6445 21.6447 21.2552 21.8477 20.7651C22 20.3976 22 19.9316 22 18.9998C22 18.0679 22 17.6019 21.8477 17.2344C21.6447 16.7443 21.2554 16.355 20.7653 16.152C20.3978 15.9998 19.9319 15.9998 19 15.9998H4.99998C4.06809 15.9998 3.60215 15.9998 3.23461 16.152C2.74455 16.355 2.35521 16.7443 2.15222 17.2344C1.99998 17.6019 1.99998 18.0679 1.99998 18.9998C1.99998 19.9316 1.99998 20.3976 2.15222 20.7651C2.35521 21.2552 2.74455 21.6445 3.23461 21.8475C3.60215 21.9998 4.06809 21.9998 4.99998 21.9998Z" stroke="black" stroke-width="2" stroke-linecap="round" stroke-linejoin="round"/>
</svg>
