<svg width="24" height="24" viewBox="0 0 24 24" fill="none" xmlns="http://www.w3.org/2000/svg">
<path d="M6.20472 10.5583C5.72578 8.77001 6.08709 6.80355 7.28865 5.28415M17.7952 10.5582C18.2742 8.76996 17.9129 6.8035 16.7113 5.2841M2.34183 11.6C1.50387 8.4753 2.20543 5.02366 4.44651 2.44629M21.6547 11.6001C22.4926 8.47534 21.7911 5.02371 19.55 2.44633M12 15.0004V9.00041M5.49998 18.5004H9.49998M5.19998 22.0004H18.8C19.9201 22.0004 20.4801 22.0004 20.908 21.7824C21.2843 21.5907 21.5902 21.2847 21.782 20.9084C22 20.4806 22 19.9205 22 18.8004V18.2004C22 17.0803 22 16.5203 21.782 16.0924C21.5902 15.7161 21.2843 15.4101 20.908 15.2184C20.4801 15.0004 19.9201 15.0004 18.8 15.0004H5.19998C4.07987 15.0004 3.51982 15.0004 3.092 15.2184C2.71567 15.4101 2.40971 15.7161 2.21796 16.0924C1.99998 16.5203 1.99998 17.0803 1.99998 18.2004V18.8004C1.99998 19.9205 1.99998 20.4806 2.21796 20.9084C2.40971 21.2847 2.71567 21.5907 3.092 21.7824C3.51982 22.0004 4.07987 22.0004 5.19998 22.0004Z" stroke="black" stroke-width="2" stroke-linecap="round" stroke-linejoin="round"/>
</svg>
