<svg width="24" height="24" viewBox="0 0 24 24" fill="none" xmlns="http://www.w3.org/2000/svg">
<path d="M11.0605 2.93178C11.3983 2.68665 11.5672 2.56408 11.7518 2.51672C11.9148 2.4749 12.0858 2.4749 12.2488 2.51672C12.4334 2.56408 12.6023 2.68665 12.9401 2.93178L21.0586 8.82371C21.397 9.06931 21.5663 9.19211 21.6686 9.35326C21.7589 9.49555 21.8119 9.65837 21.8224 9.82659C21.8344 10.0171 21.7697 10.2159 21.6404 10.6136L18.5401 20.1447C18.4109 20.5419 18.3463 20.7404 18.2247 20.8874C18.1173 21.0171 17.979 21.1176 17.8224 21.1796C17.6451 21.2498 17.4362 21.2498 17.0186 21.2498H6.98203C6.56437 21.2498 6.35554 21.2498 6.17822 21.1796C6.02164 21.1176 5.88325 21.0171 5.77589 20.8874C5.65429 20.7404 5.58969 20.5419 5.4605 20.1447L2.36021 10.6136C2.23086 10.2159 2.16619 10.0171 2.17817 9.82659C2.18874 9.65837 2.24166 9.49555 2.33202 9.35326C2.43434 9.19211 2.60355 9.06931 2.94196 8.82371L11.0605 2.93178Z" stroke="black" stroke-width="2" stroke-linecap="round" stroke-linejoin="round"/>
</svg>
