<svg width="24" height="24" viewBox="0 0 24 24" fill="none" xmlns="http://www.w3.org/2000/svg">
<path d="M17.7447 2.81249C18.7095 1.81601 20.3035 1.80312 21.2843 2.78387C22.2381 3.73775 22.2559 5.27872 21.3242 6.25432L18.5456 9.16409C18.3278 9.39216 18.2189 9.50619 18.1518 9.63975C18.0924 9.75799 18.057 9.88683 18.0478 10.0188C18.0373 10.1679 18.0728 10.3216 18.1437 10.6289L19.8716 18.1164C19.9444 18.4318 19.9808 18.5895 19.969 18.7421C19.9586 18.8771 19.9209 19.0086 19.8582 19.1286C19.7873 19.2642 19.6728 19.3787 19.4439 19.6076L19.0732 19.9783C18.467 20.5845 18.164 20.8875 17.8538 20.9424C17.5829 20.9903 17.3043 20.9245 17.0834 20.7606C16.8305 20.5728 16.695 20.1661 16.4239 19.3529L14.4141 13.3236L11.0688 16.669C10.8691 16.8687 10.7693 16.9685 10.7025 17.0861C10.6433 17.1902 10.6034 17.3042 10.5845 17.4225C10.5632 17.556 10.5788 17.6964 10.61 17.977L10.7937 19.6304C10.8249 19.9111 10.8405 20.0514 10.8192 20.185C10.8003 20.3033 10.7603 20.4172 10.7012 20.5214C10.6344 20.6389 10.5345 20.7388 10.3348 20.9385L10.1373 21.136C9.66428 21.609 9.42775 21.8456 9.1649 21.9141C8.93436 21.9742 8.68993 21.95 8.47565 21.8458C8.23134 21.7271 8.04579 21.4488 7.67469 20.8921L6.10637 18.5396C6.04007 18.4402 6.00692 18.3905 5.96843 18.3454C5.93424 18.3053 5.89694 18.268 5.85688 18.2338C5.81178 18.1953 5.76206 18.1622 5.66261 18.0959L3.31012 16.5276C2.75348 16.1565 2.47515 15.9709 2.35643 15.7266C2.2523 15.5123 2.2281 15.2679 2.28818 15.0374C2.35668 14.7745 2.59321 14.538 3.06627 14.0649L3.26378 13.8674C3.46346 13.6677 3.56331 13.5679 3.68089 13.5011C3.78505 13.4419 3.899 13.402 4.0173 13.3831C4.15083 13.3618 4.29117 13.3774 4.57184 13.4086L6.22523 13.5923C6.5059 13.6235 6.64623 13.6391 6.77977 13.6178C6.89807 13.5989 7.01202 13.5589 7.11618 13.4997C7.23376 13.433 7.3336 13.3331 7.53329 13.1334L10.8786 9.78811L4.84933 7.77835C4.0361 7.50727 3.62949 7.37174 3.44169 7.11883C3.27771 6.89799 3.21193 6.61935 3.25984 6.34849C3.31471 6.0383 3.61778 5.73523 4.22393 5.12909L4.5947 4.75831C4.82359 4.52942 4.93804 4.41497 5.07363 4.34408C5.19364 4.28134 5.32514 4.24362 5.46017 4.23323C5.61272 4.22148 5.77043 4.25787 6.08584 4.33066L13.545 6.052C13.8549 6.12353 14.0099 6.15929 14.1595 6.14865C14.304 6.13838 14.4445 6.09685 14.5713 6.02693C14.7027 5.95452 14.8133 5.84025 15.0346 5.61171L17.7447 2.81249Z" stroke="black" stroke-width="2" stroke-linecap="round" stroke-linejoin="round"/>
</svg>
