<svg width="24" height="24" viewBox="0 0 24 24" fill="none" xmlns="http://www.w3.org/2000/svg">
<path d="M11.3065 3.20742C11.5339 2.81156 11.6477 2.61363 11.7963 2.5473C11.926 2.48944 12.0742 2.48944 12.2038 2.5473C12.3525 2.61363 12.4662 2.81156 12.6937 3.20742L14.6489 6.60974C14.7331 6.75628 14.7752 6.82955 14.8342 6.8828C14.8865 6.92991 14.948 6.96547 15.015 6.98715C15.0906 7.01166 15.1751 7.01149 15.3441 7.01114L19.2682 7.0032C19.7248 7.00228 19.953 7.00182 20.0848 7.0974C20.1998 7.18077 20.2738 7.30906 20.2886 7.45029C20.3054 7.6122 20.1909 7.80967 19.9618 8.2046L17.9929 11.599C17.9081 11.7452 17.8657 11.8183 17.8491 11.896C17.8344 11.9648 17.8344 12.0359 17.8491 12.1047C17.8657 12.1825 17.9081 12.2556 17.9929 12.4018L19.9618 15.7962C20.1909 16.1911 20.3054 16.3886 20.2886 16.5505C20.2738 16.6917 20.1998 16.82 20.0848 16.9034C19.953 16.999 19.7248 16.9985 19.2682 16.9976L15.3441 16.9896C15.1751 16.9893 15.0906 16.9891 15.015 17.0136C14.948 17.0353 14.8865 17.0709 14.8342 17.118C14.7752 17.1712 14.7331 17.2445 14.6489 17.391L12.6937 20.7934C12.4662 21.1892 12.3525 21.3871 12.2038 21.4535C12.0742 21.5113 11.926 21.5113 11.7963 21.4535C11.6477 21.3871 11.5339 21.1892 11.3064 20.7934L9.35128 17.391C9.26707 17.2445 9.22497 17.1712 9.16593 17.118C9.11369 17.0709 9.05211 17.0353 8.98519 17.0136C8.90956 16.9891 8.82505 16.9893 8.65604 16.9896L4.73196 16.9976C4.27539 16.9985 4.04711 16.999 3.91533 16.9034C3.80039 16.82 3.72632 16.6917 3.71159 16.5505C3.69471 16.3886 3.80925 16.1911 4.03833 15.7962L6.00725 12.4018C6.09205 12.2556 6.13445 12.1825 6.15104 12.1047C6.16572 12.0359 6.16572 11.9648 6.15104 11.896C6.13445 11.8183 6.09205 11.7452 6.00724 11.599L4.03833 8.2046C3.80925 7.80967 3.69471 7.6122 3.71159 7.45029C3.72632 7.30906 3.80039 7.18077 3.91533 7.0974C4.04711 7.00182 4.27539 7.00228 4.73196 7.0032L8.65604 7.01114C8.82505 7.01149 8.90956 7.01166 8.98519 6.98715C9.05211 6.96547 9.11369 6.92991 9.16593 6.8828C9.22497 6.82955 9.26707 6.75628 9.35128 6.60974L11.3065 3.20742Z" stroke="black" stroke-width="2" stroke-linecap="round" stroke-linejoin="round"/>
</svg>
