<svg width="24" height="24" viewBox="0 0 24 24" fill="none" xmlns="http://www.w3.org/2000/svg">
<path d="M2.39019 18.0986L10.6151 3.89195C11.0696 3.10679 11.2969 2.71421 11.5935 2.58235C11.8521 2.46734 12.1474 2.46734 12.4061 2.58235C12.7026 2.71421 12.9299 3.10679 13.3844 3.89195L21.6093 18.0986C22.0655 18.8866 22.2936 19.2806 22.2599 19.6039C22.2305 19.886 22.0827 20.1423 21.8534 20.309C21.5904 20.5002 21.1352 20.5002 20.2246 20.5002H3.77487C2.86435 20.5002 2.40908 20.5002 2.14613 20.309C1.91677 20.1423 1.769 19.886 1.73959 19.6039C1.70588 19.2806 1.93398 18.8866 2.39019 18.0986Z" stroke="black" stroke-width="2" stroke-linecap="round" stroke-linejoin="round"/>
</svg>
