<svg width="24" height="24" viewBox="0 0 24 24" fill="none" xmlns="http://www.w3.org/2000/svg">
<path d="M15.6459 18.0153C16.0747 19.6157 15.125 21.2607 13.5246 21.6895C11.9242 22.1183 10.2792 21.1686 9.85036 19.5682M2.05683 11.6138C1.66734 10.2156 2.07238 8.70398 3.10878 7.68786M12.1463 5.74134C12.4505 5.19404 12.5507 4.53254 12.3759 3.87994C12.0185 2.54627 10.6477 1.75482 9.314 2.11217C7.98034 2.46953 7.18888 3.84037 7.54624 5.17404C7.7211 5.82663 8.13863 6.3494 8.67573 6.67128M20.319 6.72049C19.9572 5.31488 18.8506 4.20828 17.445 3.8465M17.4906 9.44577C17.1337 8.11364 16.1808 6.99967 14.8415 6.34894C13.5022 5.69821 11.8863 5.56401 10.3492 5.97587C8.81214 6.38773 7.47981 7.31191 6.64533 8.54509C5.81085 9.77828 5.54258 11.2195 5.89952 12.5516C6.4901 14.7557 6.37542 16.514 6.00247 17.8502C5.5774 19.373 5.36487 20.1345 5.42228 20.2873C5.48798 20.4623 5.53549 20.5103 5.70973 20.5778C5.86202 20.6368 6.50179 20.4654 7.78133 20.1225L19.6464 16.9433C20.9259 16.6004 21.5657 16.429 21.6681 16.3018C21.7852 16.1562 21.8024 16.0908 21.7718 15.9065C21.7451 15.7454 21.1803 15.1922 20.0508 14.0859C19.0597 13.1153 18.0812 11.6498 17.4906 9.44577Z" stroke="black" stroke-width="2" stroke-linecap="round" stroke-linejoin="round"/>
</svg>
