<svg width="24" height="24" viewBox="0 0 24 24" fill="none" xmlns="http://www.w3.org/2000/svg">
<path d="M18.9999 21H20.0103C20.9814 21 21.467 21 21.7347 20.7975C21.9679 20.6211 22.1122 20.3515 22.1296 20.0596C22.1496 19.7246 21.8802 19.3205 21.3415 18.5125L18.3312 13.9969C17.886 13.3292 17.6635 12.9954 17.383 12.8791C17.1377 12.7773 16.8621 12.7773 16.6168 12.8791C16.3363 12.9954 16.1137 13.3292 15.6686 13.9969L14.9244 15.1132M18.9999 21L11.3154 9.90018C10.8735 9.26182 10.6525 8.94264 10.3765 8.83044C10.135 8.73228 9.86477 8.73228 9.62331 8.83044C9.3473 8.94264 9.12633 9.26182 8.68439 9.90018L2.7381 18.4893C2.17507 19.3025 1.89356 19.7092 1.90958 20.0473C1.92354 20.3419 2.06676 20.6152 2.30097 20.7943C2.5699 21 3.06447 21 4.0536 21H18.9999ZM20.9999 6C20.9999 7.65685 19.6567 9 17.9999 9C16.343 9 14.9999 7.65685 14.9999 6C14.9999 4.34315 16.343 3 17.9999 3C19.6567 3 20.9999 4.34315 20.9999 6Z" stroke="black" stroke-width="2" stroke-linecap="round" stroke-linejoin="round"/>
</svg>
