<svg width="24" height="24" viewBox="0 0 24 24" fill="none" xmlns="http://www.w3.org/2000/svg">
<path d="M2.99976 7.99994H3.19976C4.87991 7.99994 5.71999 7.99994 6.36173 7.67296C6.92621 7.38534 7.38516 6.9264 7.67278 6.36191C7.99976 5.72018 7.99976 4.8801 7.99976 3.19994V2.99994M2.99976 15.9999H3.19976C4.87991 15.9999 5.71999 15.9999 6.36173 16.3269C6.92621 16.6145 7.38516 17.0735 7.67278 17.638C7.99976 18.2797 7.99976 19.1198 7.99976 20.7999V20.9999M15.9998 2.99994V3.19994C15.9998 4.8801 15.9998 5.72018 16.3267 6.36191C16.6144 6.9264 17.0733 7.38534 17.6378 7.67296C18.2795 7.99994 19.1196 7.99994 20.7998 7.99994H20.9998M15.9998 20.9999V20.7999C15.9998 19.1198 15.9998 18.2797 16.3267 17.638C16.6144 17.0735 17.0733 16.6145 17.6378 16.3269C18.2795 15.9999 19.1196 15.9999 20.7998 15.9999H20.9998" stroke="black" stroke-width="2" stroke-linecap="round" stroke-linejoin="round"/>
</svg>
