<svg width="24" height="24" viewBox="0 0 24 24" fill="none" xmlns="http://www.w3.org/2000/svg">
<path d="M8.37682 15.6162L2.71997 21.273M11.6945 6.64169L10.1336 8.20258C10.0063 8.3299 9.94264 8.39357 9.87011 8.44415C9.80573 8.48905 9.73629 8.52622 9.66321 8.55488C9.58089 8.58717 9.49261 8.60482 9.31604 8.64014L5.65158 9.37303C4.69927 9.56349 4.22312 9.65872 4.00036 9.90977C3.80629 10.1285 3.71768 10.4212 3.75783 10.7108C3.80392 11.0433 4.14728 11.3866 4.83399 12.0733L11.9197 19.1591C12.6064 19.8458 12.9498 20.1891 13.2823 20.2352C13.5719 20.2754 13.8646 20.1868 14.0833 19.9927C14.3343 19.7699 14.4296 19.2938 14.62 18.3415L15.3529 14.677C15.3882 14.5005 15.4059 14.4122 15.4382 14.3298C15.4668 14.2568 15.504 14.1873 15.5489 14.123C15.5995 14.0504 15.6632 13.9868 15.7905 13.8594L17.3514 12.2985C17.4328 12.2171 17.4735 12.1764 17.5182 12.1409C17.558 12.1093 17.6001 12.0808 17.6441 12.0557C17.6937 12.0273 17.7466 12.0046 17.8525 11.9593L20.3468 10.8903C21.0745 10.5784 21.4384 10.4225 21.6037 10.1705C21.7482 9.95013 21.7999 9.68163 21.7475 9.42335C21.6877 9.12801 21.4077 8.8481 20.8479 8.28827L15.7048 3.14514C15.145 2.58531 14.865 2.3054 14.5697 2.24552C14.3114 2.19317 14.0429 2.24488 13.8226 2.38941C13.5706 2.55469 13.4147 2.91854 13.1028 3.64624L12.0338 6.14059C11.9884 6.24641 11.9657 6.29932 11.9374 6.34893C11.9122 6.393 11.8837 6.4351 11.8522 6.47484C11.8166 6.51958 11.7759 6.56029 11.6945 6.64169Z" stroke="black" stroke-width="2" stroke-linecap="round" stroke-linejoin="round"/>
</svg>
