<svg width="24" height="24" viewBox="0 0 24 24" fill="none" xmlns="http://www.w3.org/2000/svg">
<path d="M12.9996 10.9994L3.49964 20.4994M14.0181 3.53789C15.2361 4.34609 16.4068 5.29892 17.5008 6.39291C18.6042 7.49634 19.564 8.67782 20.3767 9.90717M9.2546 7.89556L6.37973 6.93727C6.04865 6.82691 5.68398 6.89714 5.41756 7.12257L2.56041 9.54016C1.97548 10.0351 2.14166 10.977 2.86064 11.2419L5.56784 12.2393M11.6807 18.3519L12.6781 21.0591C12.943 21.7781 13.8849 21.9443 14.3798 21.3594L16.7974 18.5022C17.0228 18.2358 17.0931 17.8711 16.9827 17.5401L16.0244 14.6652M19.3482 2.27015L14.4418 3.08789C13.9119 3.17619 13.426 3.4366 13.0591 3.82884L6.446 10.898C4.73185 12.7304 4.77953 15.5919 6.55378 17.3662C8.32803 19.1404 11.1896 19.1881 13.022 17.474L20.0911 10.8609C20.4834 10.494 20.7438 10.008 20.8321 9.4782L21.6498 4.57173C21.8754 3.21809 20.7019 2.04454 19.3482 2.27015Z" stroke="black" stroke-width="2" stroke-linecap="round" stroke-linejoin="round"/>
</svg>
