<svg width="24" height="24" viewBox="0 0 24 24" fill="none" xmlns="http://www.w3.org/2000/svg">
<path d="M16.2427 5.75708C18.5858 8.10023 18.5858 11.8992 16.2427 14.2424M7.75734 14.2424C5.41419 11.8992 5.41419 8.10023 7.75734 5.75708M4.92869 17.0708C1.02345 13.1656 1.02345 6.83395 4.92869 2.92871M19.0713 2.92871C22.9765 6.83395 22.9765 13.1656 19.0713 17.0708M12 11.9998C13.1045 11.9998 14 11.1043 14 9.99976C14 8.89519 13.1045 7.99976 12 7.99976C10.8954 7.99976 9.99998 8.89519 9.99998 9.99976C9.99998 11.1043 10.8954 11.9998 12 11.9998ZM12 11.9998V20.9998" stroke="black" stroke-width="2" stroke-linecap="round" stroke-linejoin="round"/>
</svg>
