<svg width="24" height="24" viewBox="0 0 24 24" fill="none" xmlns="http://www.w3.org/2000/svg">
<path d="M11.2896 3.36589C11.5193 2.92379 11.6342 2.70274 11.7881 2.6309C11.9221 2.56835 12.077 2.56835 12.211 2.6309C12.3649 2.70274 12.4798 2.92379 12.7095 3.36589L14.2225 6.27816C14.3216 6.46885 14.3711 6.5642 14.4454 6.62754C14.511 6.68345 14.5899 6.72146 14.6745 6.73788C14.7704 6.75648 14.8758 6.73576 15.0867 6.69433L18.3069 6.06148C18.7958 5.96541 19.0402 5.91738 19.1923 5.99293C19.3248 6.05872 19.4214 6.17978 19.456 6.32358C19.4958 6.48871 19.3946 6.71632 19.1922 7.17154L17.8586 10.1702C17.7713 10.3666 17.7276 10.4648 17.7244 10.5624C17.7216 10.6485 17.7411 10.7339 17.781 10.8103C17.8262 10.8968 17.9082 10.9663 18.072 11.1054L20.5746 13.2285C20.9545 13.5508 21.1445 13.7119 21.1803 13.878C21.2114 14.0226 21.177 14.1735 21.0862 14.2903C20.9819 14.4244 20.7408 14.4872 20.2587 14.6127L17.0827 15.4398C16.8748 15.4939 16.7708 15.521 16.6925 15.5793C16.6234 15.6308 16.5688 15.6993 16.534 15.7782C16.4945 15.8675 16.4912 15.9749 16.4847 16.1897L16.3851 19.47C16.37 19.968 16.3624 20.217 16.2549 20.3485C16.1613 20.463 16.0218 20.5302 15.8739 20.532C15.704 20.534 15.5047 20.3847 15.1059 20.086L12.4791 18.1186C12.3071 17.9898 12.2211 17.9254 12.1267 17.9006C12.0434 17.8787 11.9558 17.8787 11.8724 17.9006C11.778 17.9254 11.692 17.9898 11.52 18.1186L8.8932 20.086C8.49444 20.3847 8.29506 20.534 8.12521 20.532C7.97731 20.5302 7.8378 20.463 7.74418 20.3485C7.63667 20.217 7.62911 19.968 7.61399 19.47L7.51439 16.1897C7.50787 15.9749 7.50461 15.8675 7.46514 15.7782C7.43031 15.6993 7.37569 15.6308 7.30658 15.5793C7.22829 15.521 7.12432 15.4939 6.91636 15.4398L3.74042 14.6127C3.2583 14.4872 3.01724 14.4244 2.91295 14.2903C2.82214 14.1735 2.78768 14.0226 2.81884 13.878C2.85463 13.7119 3.04458 13.5508 3.42448 13.2285L5.92706 11.1054C6.09093 10.9663 6.17286 10.8968 6.21808 10.8103C6.258 10.7339 6.27749 10.6485 6.27467 10.5624C6.27148 10.4648 6.22782 10.3666 6.1405 10.1702L4.80694 7.17154C4.6045 6.71632 4.50328 6.48871 4.54309 6.32358C4.57775 6.17978 4.6743 6.05872 4.80677 5.99293C4.95891 5.91738 5.20333 5.96541 5.69219 6.06148L8.91245 6.69433C9.1233 6.73576 9.22873 6.75648 9.32458 6.73788C9.4092 6.72146 9.48812 6.68345 9.55371 6.62754C9.62802 6.5642 9.67755 6.46885 9.77662 6.27816L11.2896 3.36589Z" stroke="black" stroke-width="2" stroke-linecap="round" stroke-linejoin="round"/>
</svg>
