<svg width="103" height="33" viewBox="0 0 103 33" fill="none" xmlns="http://www.w3.org/2000/svg">
<g clip-path="url(#clip0_152_2189)">
<path fill-rule="evenodd" clip-rule="evenodd" d="M5.858 30.0868C4.85071 28.5947 3.91831 27.0519 3.12418 25.4352C2.85018 24.8771 2.5915 24.3115 2.35133 23.738C1.6474 22.0573 1.11386 20.312 0.74754 18.5273C0.318247 16.4366 0.109132 14.3068 0.018295 12.1762L0 11.7478L0.245493 11.3962C1.12216 10.141 2.122 8.97288 3.20268 7.88916C4.35079 6.7378 5.59315 5.68025 6.90932 4.72543C7.41052 4.36171 7.92256 4.01309 8.44376 3.67872C9.58698 2.94511 10.7734 2.27956 11.9923 1.68059C13.1558 1.10885 14.3492 0.597087 15.5686 0.156155L15.9998 0.000244141L16.431 0.156155C17.6502 0.597087 18.8436 1.10885 20.0072 1.68059C21.2262 2.27956 22.4126 2.94532 23.5558 3.67872C24.077 4.01309 24.5891 4.36171 25.0902 4.72543C26.4064 5.68025 27.6488 6.7378 28.7969 7.88916C29.8776 8.97288 30.8774 10.141 31.7541 11.3962L31.9996 11.7478L31.9813 12.1762C31.8904 14.3068 31.6813 16.4366 31.252 18.5275C30.8857 20.3123 30.3522 22.0575 29.6482 23.7382C29.4081 24.3117 29.1494 24.8775 28.8754 25.4354C28.0813 27.0521 27.1489 28.5949 26.1416 30.087L25.8701 30.489L25.3996 30.6073C22.3205 31.3813 19.1869 32 15.9996 32C12.8122 32 9.67845 31.3813 6.59958 30.6073L6.12902 30.489L5.85758 30.087L5.858 30.0868Z" fill="#231F20"/>
<path fill-rule="evenodd" clip-rule="evenodd" d="M6.34646 29.757C5.35322 28.2858 4.43634 26.7696 3.65328 25.1754C3.38438 24.6279 3.13059 24.073 2.89489 23.5104C2.20478 21.8628 1.68402 20.1584 1.32471 18.4087C0.9018 16.3491 0.696514 14.2497 0.606954 12.151L0.597168 11.9217L0.728636 11.7335C1.58531 10.507 2.56409 9.36397 3.62009 8.30514C4.74587 7.17612 5.96504 6.13856 7.25547 5.20224C7.74773 4.84511 8.25042 4.50287 8.76225 4.17446C9.88654 3.45298 11.0536 2.79828 12.2525 2.20909C13.3966 1.64692 14.5703 1.14345 15.7692 0.709966L16 0.626587L16.2308 0.709966C17.4296 1.14345 18.6034 1.64692 19.7475 2.20909C20.9463 2.79828 22.1135 3.45298 23.2378 4.17446C23.7494 4.50287 24.2523 4.84511 24.7446 5.20224C26.035 6.13834 27.2542 7.17612 28.38 8.30514C29.436 9.36397 30.4148 10.507 31.2714 11.7335L31.4029 11.9217L31.3931 12.151C31.3035 14.2497 31.0983 16.3491 30.6754 18.4087C30.3163 20.1582 29.7953 21.8628 29.1052 23.5104C28.8695 24.073 28.6157 24.6279 28.3468 25.1754C27.5637 26.7696 26.6468 28.2858 25.6536 29.757L25.5083 29.9723L25.2564 30.0357C22.2246 30.7978 19.1389 31.4106 16 31.4106C12.8612 31.4106 9.77549 30.7978 6.74364 30.0357L6.49176 29.9723L6.34646 29.757Z" fill="white"/>
<path fill-rule="evenodd" clip-rule="evenodd" d="M16.0002 10.6672L11.9451 13.9435C12.5758 13.6561 13.3314 13.2071 13.7882 13.9435H14.594V15.5441H17.4059V13.9435H18.2117C18.6685 13.2071 19.4241 13.6561 20.0548 13.9435L15.9997 10.6672H16.0002Z" fill="#29176D" stroke="#231F20" stroke-width="0.0157557" stroke-miterlimit="2.61"/>
<path fill-rule="evenodd" clip-rule="evenodd" d="M15.9999 11.7632C16.4628 11.7632 16.838 12.1384 16.838 12.6012C16.838 13.0641 16.4628 13.4393 15.9999 13.4393C15.5371 13.4393 15.1619 13.0641 15.1619 12.6012C15.1619 12.1384 15.5371 11.7632 15.9999 11.7632Z" fill="white"/>
<path fill-rule="evenodd" clip-rule="evenodd" d="M14.6864 18.5124C14.6879 18.5907 14.6923 18.6696 14.7051 18.7468C14.7136 18.7985 14.7257 18.8499 14.744 18.8989C14.7908 19.0237 14.8681 19.1058 14.9893 19.1616C15.2163 19.2658 15.5458 19.2539 15.7873 19.2275L16.0845 19.1949V20.1929L15.8392 20.2138C15.1484 20.2725 14.2507 19.8777 13.674 19.5319C12.7431 18.9739 11.6796 18.1219 10.5413 18.1219C9.54912 18.1219 8.79052 18.7523 8.09254 19.3851L7.64453 19.7914V19.1867C7.64453 18.5579 7.81897 17.967 8.14041 17.4285C8.84285 16.2514 10.2356 15.3774 11.5299 14.9919C12.2736 14.7705 13.1726 14.6663 13.8797 15.0604C14.3543 15.3248 14.6815 15.7979 14.7094 16.3462L14.7098 16.3545L14.6862 18.5122L14.6864 18.5124Z" fill="#231F20"/>
<path fill-rule="evenodd" clip-rule="evenodd" d="M15.8164 19.494V19.947C15.3957 19.9828 14.6502 19.805 13.8119 19.3023C12.9097 18.7617 11.7741 17.8543 10.5413 17.8543C9.50341 17.8543 8.72523 18.45 7.9126 19.1871C7.9126 17.0475 10.0954 15.699 11.6065 15.2491C13.5798 14.6614 14.4026 15.5884 14.442 16.36L14.4184 18.5134C14.4275 19.0214 14.5588 19.6318 15.8164 19.494Z" fill="#FFF200"/>
<path fill-rule="evenodd" clip-rule="evenodd" d="M12.2879 19.4263C12.1166 19.4608 11.9456 19.5212 11.7863 19.5918C11.5799 19.6833 11.0853 19.954 10.9877 20.1667C10.8049 20.5645 11.1676 21.0088 11.428 21.2732C11.9484 21.8018 12.5183 22.264 13.0995 22.7226C13.5173 23.0523 13.9368 23.3796 14.3403 23.7272C14.7764 24.103 15.1889 24.4993 15.5691 24.9319L16.7697 26.2981L15.2261 25.336C14.6571 24.9813 14.0689 24.6652 13.4585 24.3872C12.9061 24.1353 12.3415 23.9173 11.7695 23.7148C11.1179 23.484 10.4594 23.2724 9.80615 23.0465L9.79955 23.0442L9.79317 23.0416C9.14157 22.7781 8.49806 22.3886 8.07749 21.8126C7.74669 21.3596 7.58714 20.8336 7.62713 20.2729C7.6433 20.0468 7.69138 19.8241 7.76584 19.6101L7.77158 19.5935L7.77945 19.5778C8.21002 18.7221 8.89906 18.2892 9.83295 18.1875L9.83912 18.1869L9.84529 18.1865C10.7813 18.1301 11.6095 18.4353 12.3832 18.9405L12.904 19.2806L12.2877 19.4263H12.2879Z" fill="#231F20"/>
<path fill-rule="evenodd" clip-rule="evenodd" d="M9.8619 18.4539C10.8556 18.3922 11.6461 18.7725 12.2349 19.1637C11.6284 19.286 10.8937 19.729 10.7441 20.0547C10.5618 20.4516 10.7067 20.9223 11.237 21.4611C12.5666 22.8115 14.0366 23.594 15.3678 25.1087C13.4092 23.888 11.7852 23.4469 9.8936 22.7932C8.02262 22.0368 7.64502 20.7734 8.01901 19.6982C8.52318 18.6966 9.34433 18.5102 9.86212 18.4539H9.8619Z" fill="#FFF200"/>
<path fill-rule="evenodd" clip-rule="evenodd" d="M17.3136 18.5124C17.3121 18.5907 17.3076 18.6696 17.2949 18.7468C17.2864 18.7985 17.2742 18.8499 17.256 18.8989C17.2092 19.0237 17.1319 19.1058 17.0107 19.1616C16.7837 19.2658 16.4542 19.2539 16.2127 19.2275L15.9155 19.1949V20.1929L16.1608 20.2138C16.8515 20.2725 17.7493 19.8777 18.326 19.5319C19.2569 18.9739 20.3204 18.1219 21.4587 18.1219C22.4509 18.1219 23.2095 18.7523 23.9074 19.3851L24.3555 19.7914V19.1867C24.3555 18.5579 24.181 17.967 23.8596 17.4285C23.1571 16.2514 21.7644 15.3774 20.4701 14.9919C19.7264 14.7705 18.8274 14.6663 18.1203 15.0604C17.6457 15.3248 17.3185 15.7979 17.2906 16.3462L17.2902 16.3545L17.3138 18.5122L17.3136 18.5124Z" fill="#231F20"/>
<path fill-rule="evenodd" clip-rule="evenodd" d="M16.1836 19.494V19.947C16.6044 19.9828 17.3498 19.805 18.1882 19.3023C19.0904 18.7617 20.2259 17.8543 21.4587 17.8543C22.4966 17.8543 23.2748 18.45 24.0874 19.1871C24.0874 17.0475 21.9046 15.699 20.3936 15.2491C18.4203 14.6614 17.5974 15.5884 17.5581 16.36L17.5817 18.5134C17.5725 19.0214 17.4413 19.6318 16.1836 19.494Z" fill="#FFF200"/>
<path fill-rule="evenodd" clip-rule="evenodd" d="M19.7121 19.4263C19.8833 19.4608 20.0543 19.5212 20.2137 19.5918C20.42 19.6833 20.9146 19.954 21.0123 20.1667C21.195 20.5645 20.8323 21.0088 20.5719 21.2732C20.0516 21.8018 19.4817 22.264 18.9005 22.7226C18.4827 23.0523 18.0632 23.3796 17.6596 23.7272C17.2235 24.103 16.811 24.4993 16.4309 24.9319L15.2302 26.2981L16.7738 25.336C17.3429 24.9813 17.9311 24.6652 18.5414 24.3872C19.0939 24.1353 19.6585 23.9173 20.2305 23.7148C20.8821 23.484 21.5405 23.2724 22.1938 23.0465L22.2004 23.0442L22.2068 23.0416C22.8584 22.7781 23.5019 22.3886 23.9225 21.8126C24.2533 21.3596 24.4128 20.8336 24.3728 20.2729C24.3566 20.0468 24.3086 19.8241 24.2341 19.6101L24.2284 19.5935L24.2205 19.5778C23.7899 18.7221 23.1009 18.2892 22.167 18.1875L22.1608 18.1869L22.1546 18.1865C21.2186 18.1301 20.3905 18.4353 19.6168 18.9405L19.096 19.2806L19.7123 19.4263H19.7121Z" fill="#231F20"/>
<path fill-rule="evenodd" clip-rule="evenodd" d="M22.138 18.4539C21.1443 18.3922 20.3538 18.7725 19.765 19.1637C20.3715 19.286 21.1063 19.729 21.2558 20.0547C21.4381 20.4516 21.2933 20.9223 20.7629 21.4611C19.4333 22.8115 17.9634 23.594 16.6321 25.1087C18.5907 23.888 20.2147 23.4469 22.1063 22.7932C23.9773 22.0368 24.3549 20.7734 23.9809 19.6982C23.4767 18.6966 22.6556 18.5102 22.1378 18.4539H22.138Z" fill="#FFF200"/>
<path fill-rule="evenodd" clip-rule="evenodd" d="M16 15.1223L16.0697 14.4353L18.066 12.5333L19.4243 13.6009L18.9435 13.7547C18.1928 13.995 17.704 14.842 17.5657 15.5807C17.4848 16.0125 17.5106 16.4736 17.5376 16.9099C17.5684 17.4104 17.6057 17.9096 17.5529 18.4103C17.4704 19.1949 16.7935 19.4298 16.0891 19.4298H15.9104C15.2063 19.4298 14.5291 19.1947 14.4466 18.4103C14.3938 17.9096 14.4311 17.4104 14.4619 16.9099C14.4889 16.4736 14.5147 16.0125 14.4338 15.5807C14.2956 14.842 13.8067 13.995 13.056 13.7547L12.5752 13.6009L13.9335 12.5333L15.9298 14.4353L15.9995 15.1223H16Z" fill="#231F20"/>
<path fill-rule="evenodd" clip-rule="evenodd" d="M15.9107 19.1622H16.0894C16.9158 19.1622 17.2383 18.8408 17.2866 18.3824C17.3888 17.4108 17.1356 16.4219 17.3024 15.5316C17.4717 14.6271 18.0593 13.7566 18.8619 13.4996L18.0829 12.8875L16.3264 14.561L16.153 16.266H15.8469L15.6735 14.561L13.917 12.8875L13.1379 13.4996C13.9406 13.7566 14.5281 14.6271 14.6975 15.5316C14.8643 16.4221 14.6111 17.411 14.7132 18.3824C14.7615 18.8408 15.084 19.1622 15.9105 19.1622H15.9107Z" fill="#FFF200"/>
<path fill-rule="evenodd" clip-rule="evenodd" d="M16 25.142L20.0598 20.3198H12.1172L16 25.142ZM15.9989 24.7183L19.4832 20.5876H12.6765L15.9989 24.7183Z" fill="#231F20"/>
<path fill-rule="evenodd" clip-rule="evenodd" d="M15.8883 22.5443C15.8843 22.5484 15.8824 23.8635 15.8707 24.0879C15.863 24.2323 15.8637 24.4112 15.8513 24.535L15.9989 24.7186C16.0508 24.6569 16.1027 24.5954 16.1548 24.5337C16.1391 24.3812 16.1234 24.2287 16.1078 24.0762L16.0691 22.5484C16.0621 22.5207 16.0551 22.4933 16.0481 22.4656C16.0481 22.4656 15.9613 22.3769 15.8885 22.5443H15.8883Z" fill="#95806B"/>
<path fill-rule="evenodd" clip-rule="evenodd" d="M15.7348 22.196C15.7348 22.196 15.6935 22.2335 15.6846 22.2462C15.6756 22.259 15.658 22.2739 15.655 22.2983C15.652 22.323 15.6835 22.3317 15.6948 22.3328C15.7061 22.3339 15.7756 22.2845 15.8013 22.2837C15.8271 22.2826 15.9147 22.1444 15.7346 22.196H15.7348ZM15.8303 22.0916C15.8303 22.0886 15.7977 22.0878 15.7831 22.1005C15.7684 22.1133 15.7535 22.1231 15.7684 22.1444C15.7831 22.1656 15.8707 22.1724 15.8305 22.0918L15.8303 22.0916ZM15.8986 22.0167C15.7303 21.7111 15.4438 21.3493 14.687 21.4175C14.6179 21.4365 14.9644 21.4575 14.9605 21.4911C14.9567 21.5245 14.9174 21.5256 14.9133 21.5669C14.9093 21.6081 14.8995 21.6634 14.9488 21.6003C14.998 21.5373 15.0178 21.5077 15.0848 21.5137C15.1518 21.5196 15.2226 21.5335 15.2226 21.5649C15.2226 21.5964 15.126 21.6294 15.126 21.6713C15.126 21.7132 15.1418 21.7392 15.1537 21.713C15.1656 21.687 15.2128 21.6358 15.266 21.6317C15.3192 21.6277 15.3506 21.6298 15.3762 21.6613C15.4017 21.6928 15.3742 21.7283 15.3653 21.737C15.3564 21.746 15.2402 21.8138 15.2413 21.8336C15.2424 21.8534 15.2611 21.87 15.2747 21.8583C15.2883 21.8464 15.4312 21.7224 15.4736 21.7283C15.5159 21.7343 15.5769 21.7598 15.5927 21.7972C15.6084 21.8347 15.5612 21.8564 15.5297 21.877C15.4982 21.8976 15.4312 21.9282 15.447 21.9489C15.4627 21.9695 15.5021 21.9687 15.5189 21.9538C15.5357 21.9391 15.6084 21.8702 15.6714 21.8897C15.7343 21.9095 15.823 21.9725 15.7975 22.0167C15.772 22.061 15.6735 22.0846 15.632 22.0767C15.5908 22.0688 15.3425 22.0384 15.1594 22.0782C14.9763 22.118 14.8306 22.2126 14.7893 22.2598C14.748 22.3071 14.5549 22.437 14.5451 22.4587C14.5353 22.4804 14.5039 22.5238 14.5451 22.5059C14.5864 22.4881 14.7204 22.3602 14.7578 22.37C14.7953 22.3798 14.7834 22.437 14.7893 22.4528C14.7953 22.4685 14.8189 22.4626 14.8257 22.4557C14.8325 22.4489 14.811 22.3839 14.8374 22.3505C14.864 22.3171 14.9605 22.246 14.9741 22.2618C14.988 22.2775 14.9812 22.3554 14.9812 22.3898C14.9812 22.4243 14.998 22.4341 15.0088 22.4213C15.0197 22.4085 15.0609 22.2637 15.0984 22.2452C15.1358 22.2265 15.1673 22.2275 15.1722 22.2441C15.1771 22.2609 15.1545 22.3456 15.1683 22.3868C15.1822 22.4281 15.2324 22.4321 15.2373 22.3909C15.2422 22.3496 15.2254 22.2058 15.256 22.186C15.2864 22.1663 15.3564 22.1339 15.3721 22.1624C15.3879 22.1909 15.3594 22.3062 15.3947 22.3171C15.43 22.3279 15.4625 22.1939 15.4744 22.1822C15.4863 22.1703 15.6448 22.1301 15.6508 22.1567C15.6567 22.1833 15.6223 22.2403 15.6163 22.2503C15.6103 22.2601 15.575 22.3271 15.575 22.3547C15.575 22.3824 15.5623 22.3832 15.5465 22.3862C15.5308 22.3892 15.4215 22.403 15.2858 22.5349C15.1498 22.6667 15.0299 22.7712 14.9984 22.8263C14.9669 22.8814 14.8429 23.0173 14.8291 23.1432C14.8153 23.2691 14.837 23.2376 14.8418 23.2347C14.8467 23.2317 14.9078 23.1036 14.9305 23.0751C14.9531 23.0466 14.9612 23.0496 14.9661 23.0673C14.971 23.0849 14.9975 23.1568 15.0005 23.1381C15.0035 23.1194 15.0154 22.9954 15.0154 22.9677C15.0154 22.9401 15.0184 22.9165 15.0352 22.9145C15.052 22.9126 15.0786 22.8939 15.0775 22.8841C15.0765 22.8743 15.0922 22.8635 15.1109 22.8752C15.1296 22.8871 15.1532 22.9745 15.173 22.9696C15.1928 22.9647 15.1858 22.7835 15.1898 22.754C15.1939 22.7244 15.2096 22.7087 15.2254 22.7165C15.2411 22.7244 15.3209 22.8267 15.3347 22.8218C15.3485 22.8169 15.3406 22.7757 15.3209 22.7518C15.3011 22.728 15.2972 22.6987 15.304 22.6702C15.3109 22.6417 15.3838 22.56 15.4006 22.557C15.4174 22.554 15.4695 22.5461 15.4755 22.5668C15.4814 22.5874 15.4923 22.6612 15.501 22.6721C15.5099 22.6829 15.5257 22.6376 15.5257 22.6248C15.5257 22.6121 15.5197 22.5215 15.5257 22.4989C15.5316 22.4764 15.6627 22.3975 15.6754 22.4281C15.6882 22.4585 15.7139 22.5 15.7286 22.5344C15.7433 22.5687 15.7516 22.5034 15.7365 22.4517C15.7214 22.4 15.7503 22.3877 15.7552 22.3839C15.7601 22.3798 15.8596 22.3719 15.8596 22.3719C15.8596 22.3719 15.9217 22.4753 15.8813 22.494C15.8409 22.5128 15.6531 22.557 15.5191 22.7461C15.3853 22.9352 15.3674 22.9884 15.3321 23.1379C15.2966 23.2876 15.3183 23.575 15.336 23.5671C15.3536 23.5592 15.3753 23.4195 15.3813 23.3859C15.3872 23.3525 15.4059 23.3368 15.4166 23.3465C15.4274 23.3563 15.4578 23.3761 15.4578 23.3761C15.4578 23.3761 15.4617 23.3406 15.4519 23.3327C15.4421 23.3248 15.4115 23.2657 15.4096 23.251C15.4076 23.2364 15.4047 23.1753 15.4234 23.1536C15.4421 23.1319 15.4923 23.1506 15.4953 23.1694C15.4982 23.1881 15.5121 23.2147 15.5121 23.2147C15.5121 23.2147 15.5278 23.1891 15.5238 23.1626C15.5197 23.136 15.4617 23.1104 15.4617 23.0711C15.4617 23.0317 15.4883 22.9932 15.5138 23.0052C15.5393 23.0171 15.5916 23.0445 15.5955 23.0692C15.5995 23.0939 15.6822 23.1007 15.6171 23.019C15.5523 22.9373 15.5295 22.9482 15.5314 22.9137C15.5333 22.8792 15.5708 22.7916 15.5886 22.8073C15.6063 22.8231 15.6605 22.8852 15.6703 22.9186C15.6801 22.952 15.698 22.9392 15.7007 22.9245C15.7037 22.9099 15.6682 22.832 15.6644 22.7788C15.6605 22.7257 15.6456 22.711 15.6742 22.6833C15.7027 22.6557 15.7322 22.6695 15.7382 22.6972C15.7441 22.7248 15.7677 22.772 15.7756 22.7886C15.7835 22.8054 15.7992 22.7927 15.8003 22.7837C15.8013 22.7748 15.7884 22.6763 15.8043 22.6578C15.8201 22.6391 15.9777 22.5791 15.9777 22.5791L16.0683 22.524C16.0683 22.524 16.224 22.6304 16.218 22.6716C16.2121 22.7129 16.2012 22.7514 16.1885 22.7671C16.1757 22.7829 16.1976 22.7769 16.2182 22.7671C16.2387 22.7574 16.2674 22.7012 16.2723 22.6746C16.2772 22.648 16.358 22.7061 16.3618 22.7297C16.3659 22.7533 16.3578 22.8084 16.3382 22.842C16.3184 22.8754 16.3008 22.908 16.3008 22.9139C16.3008 22.9199 16.3776 22.8705 16.3914 22.8558C16.4052 22.8412 16.4248 22.8076 16.4426 22.8184C16.4603 22.8293 16.4752 22.9386 16.4703 22.9573C16.4654 22.976 16.4054 23.0409 16.3895 23.0588C16.3737 23.0764 16.3491 23.1049 16.355 23.109C16.361 23.113 16.425 23.0834 16.4386 23.0696C16.4524 23.0558 16.5075 23.0145 16.5143 23.0262C16.5211 23.0379 16.5369 23.0794 16.5369 23.0981C16.5369 23.1168 16.4788 23.2025 16.459 23.2113C16.4392 23.22 16.4994 23.2181 16.5182 23.2094C16.5369 23.2004 16.5909 23.1917 16.5939 23.2094C16.5969 23.227 16.6077 23.2872 16.5939 23.3049C16.5801 23.3225 16.5496 23.3619 16.5388 23.3806C16.5279 23.3993 16.5564 23.3904 16.5673 23.3874C16.5781 23.3844 16.6254 23.3627 16.6254 23.3687C16.6254 23.3746 16.6354 23.4229 16.6354 23.4652C16.6354 23.5076 16.6186 23.6258 16.6354 23.6316C16.6522 23.6375 16.6836 23.4818 16.6866 23.3844C16.6896 23.287 16.7083 22.962 16.5045 22.7671C16.3008 22.5723 16.2801 22.5702 16.2465 22.5327C16.2131 22.4953 16.2397 22.3556 16.2859 22.3515C16.3323 22.3477 16.3952 22.3732 16.3961 22.3987C16.3971 22.4243 16.4158 22.5493 16.4227 22.5602C16.4295 22.571 16.4463 22.5729 16.4492 22.5306C16.4522 22.4883 16.4482 22.3996 16.4384 22.3751C16.4286 22.3505 16.4631 22.3702 16.4709 22.3741C16.4788 22.3781 16.6128 22.4019 16.6047 22.5204C16.5969 22.6389 16.6028 22.7038 16.6115 22.7029C16.6205 22.7018 16.6471 22.6538 16.6598 22.6202C16.6726 22.5866 16.6643 22.4823 16.6881 22.4853C16.7119 22.4883 16.8104 22.5257 16.8142 22.6153C16.8183 22.7048 16.7966 22.7512 16.7768 22.7778C16.757 22.8044 16.7521 22.8456 16.76 22.8478C16.7679 22.8497 16.8338 22.8044 16.8436 22.7937C16.8534 22.7829 16.8938 22.7337 16.9046 22.7129C16.9155 22.6923 16.9499 22.7178 16.9597 22.7484C16.9695 22.7788 16.9597 22.9365 16.9597 22.965C16.9597 22.9935 16.9912 22.9798 16.9923 22.9698C16.9933 22.9601 17.0227 22.8182 17.0484 22.8388C17.0739 22.8595 17.1144 22.9086 17.1203 22.9362C17.1263 22.9639 17.0967 23.1115 17.1084 23.1164C17.1203 23.1213 17.1635 23.0819 17.1694 23.073C17.1754 23.0641 17.2316 23.0415 17.2413 23.0907C17.2511 23.1398 17.3024 23.2304 17.3035 23.2442C17.3045 23.2581 17.3349 23.196 17.3311 23.1596C17.3273 23.1232 17.2779 22.905 17.0869 22.7127C16.8959 22.5204 16.7007 22.2932 16.3001 22.2677C15.8996 22.2422 16.1438 22.246 16.1398 22.2205C16.1359 22.195 16.3131 22.0493 16.3544 22.0591C16.3956 22.0688 16.4803 22.1535 16.4962 22.1614C16.512 22.1692 16.509 22.1052 16.509 22.0973C16.509 22.0895 16.4884 22.0303 16.509 22.0216C16.5296 22.0129 16.6251 22.0078 16.6449 22.0797C16.6647 22.1516 16.6853 22.1703 16.6962 22.179C16.707 22.188 16.7268 22.1701 16.7268 22.1603C16.7268 22.1505 16.6983 22.0157 16.7228 21.9989C16.7474 21.9821 16.7404 21.9791 16.7819 22.0057C16.8232 22.0323 16.8921 22.1248 16.8912 22.2045C16.8902 22.2843 16.9257 22.299 16.9336 22.2764C16.9414 22.2539 16.9748 22.1188 16.9602 22.0716C16.9455 22.0244 16.9986 22.0569 17.0144 22.0963C17.0301 22.1356 17.105 22.239 17.1069 22.2735C17.1088 22.3079 17.1444 22.3098 17.1365 22.2558C17.1286 22.2016 17.1178 22.0984 17.1031 22.0797C17.0884 22.061 17.1237 22.0827 17.1444 22.1093C17.165 22.1358 17.2409 22.1643 17.2664 22.2245C17.292 22.2845 17.3094 22.3426 17.3207 22.3339C17.3317 22.3249 17.346 22.2058 17.3317 22.1882C17.3177 22.1705 17.4762 22.3013 17.4919 22.3113C17.5076 22.3213 17.6061 22.3911 17.5942 22.3626C17.5823 22.3341 17.359 22.1116 17.2428 22.0427C17.1267 21.9738 17.0508 21.9078 16.8342 21.8989C16.6177 21.89 16.4522 21.9304 16.4058 21.9423C16.3595 21.9542 16.2025 22.0289 16.1312 22.088C16.0879 22.1352 16.0806 22.1767 16.0806 22.1767V21.9197C16.0806 21.9197 16.147 21.8257 16.2072 21.8425C16.2672 21.8593 16.3844 21.8672 16.402 21.8729C16.4197 21.8789 16.4246 21.8504 16.4188 21.8425C16.4129 21.8347 16.3342 21.7706 16.281 21.7698C16.2278 21.7687 16.1925 21.7679 16.1746 21.7728C16.157 21.7777 16.217 21.6585 16.2923 21.6551C16.3676 21.6517 16.4267 21.6498 16.4641 21.6892C16.5016 21.7285 16.529 21.7679 16.529 21.7375C16.529 21.707 16.5279 21.6341 16.5014 21.6134C16.4748 21.5928 16.4414 21.5592 16.3546 21.576C16.268 21.5928 16.3733 21.5464 16.3733 21.5296C16.3733 21.5128 16.4197 21.4854 16.5014 21.4814C16.583 21.4775 16.6717 21.5305 16.6934 21.569C16.7151 21.6075 16.7515 21.6311 16.7564 21.6211C16.7613 21.6113 16.774 21.5296 16.72 21.4941C16.666 21.4586 16.6107 21.4214 16.6107 21.4101C16.6107 21.3988 16.6313 21.3888 16.6707 21.3929C16.71 21.3969 16.8153 21.4195 16.8519 21.4539C16.8883 21.4884 16.907 21.4697 16.904 21.4607C16.901 21.4518 16.8804 21.3869 16.843 21.3693C16.8055 21.3516 16.7662 21.3308 16.7789 21.315C16.7917 21.2993 16.9178 21.2738 16.9689 21.2874C17.0201 21.3012 17.0929 21.3012 17.1007 21.3286C17.1086 21.3563 17.1135 21.3837 17.1214 21.3759C17.1292 21.368 17.1599 21.3148 17.1244 21.2833C17.0888 21.2519 17.0259 21.2587 17.015 21.241C17.0042 21.2234 17.2424 21.1868 17.2937 21.1829C17.3449 21.1791 17.3892 21.1849 17.3753 21.1612C17.3615 21.1376 17.0701 21.1298 16.9716 21.1515C16.8732 21.1732 16.5503 21.244 16.4637 21.3118C16.3771 21.3797 16.2678 21.4714 16.2225 21.5343C16.1772 21.5973 16.131 21.6958 16.1161 21.7085C16.1015 21.7213 16.0885 21.7145 16.0817 21.6977C16.0749 21.6809 16.0945 21.0557 16.0296 20.7271C15.9647 20.3983 15.9037 21.3474 15.9075 21.4144C15.9113 21.4814 15.8937 21.6073 15.8937 21.6073C15.8937 21.6073 15.8247 21.5501 15.8101 21.5235C15.7954 21.4969 15.5176 21.2961 15.4232 21.2804C15.3287 21.2646 15.3179 21.2942 15.3857 21.3403C15.4536 21.3867 15.494 21.3708 15.4951 21.3895C15.4961 21.4082 15.5078 21.4329 15.5048 21.4416C15.5019 21.4505 15.5727 21.4495 15.5884 21.4475C15.6042 21.4456 15.6191 21.4446 15.6297 21.4554C15.6405 21.4663 15.6376 21.488 15.6376 21.488C15.6376 21.488 15.6099 21.4909 15.5893 21.5086C15.5687 21.5262 15.5746 21.5411 15.6129 21.5401C15.6512 21.539 15.7075 21.5205 15.7154 21.5401C15.7233 21.5598 15.738 21.5864 15.7222 21.5962C15.7065 21.606 15.6465 21.609 15.6484 21.6198C15.6503 21.6307 15.7754 21.6149 15.799 21.6247C15.8226 21.6345 15.8196 21.6866 15.7941 21.6907C15.7686 21.6947 15.7252 21.6966 15.7292 21.7162C15.7331 21.736 15.739 21.7379 15.7784 21.736C15.8177 21.734 15.8354 21.7162 15.8592 21.7438C15.8828 21.7715 15.8805 21.8225 15.8805 21.8225C15.8805 21.8225 15.8209 21.821 15.8101 21.8225C15.7992 21.824 15.8018 21.8432 15.8243 21.8481C15.8469 21.853 15.8883 21.8578 15.8883 21.8578L15.8947 21.9638C15.8947 21.9638 15.8973 21.9835 15.8981 22.0174L15.8986 22.0167Z" fill="#576156"/>
<path fill-rule="evenodd" clip-rule="evenodd" d="M15.9706 22.5884V22.5922C15.9706 22.6498 15.924 22.6966 15.8664 22.6966C15.8088 22.6966 15.762 22.6498 15.762 22.5922C15.762 22.5345 15.8088 22.4878 15.8664 22.4878C15.8088 22.4878 15.762 22.4458 15.762 22.3942C15.762 22.3533 15.7911 22.3187 15.8317 22.3059C15.8202 22.2853 15.8132 22.2587 15.8132 22.2297C15.8132 22.1644 15.8485 22.1117 15.8919 22.1117C15.9221 22.1117 15.9483 22.137 15.9615 22.1744C15.9806 22.153 16.0085 22.1393 16.0395 22.1393C16.0972 22.1393 16.144 22.1861 16.144 22.2438C16.144 22.2721 16.1327 22.2976 16.1144 22.3165C16.1627 22.3257 16.1991 22.3682 16.1991 22.419C16.1991 22.4463 16.1886 22.4712 16.1714 22.4897C16.2157 22.5018 16.2482 22.5422 16.2482 22.5903C16.2482 22.6479 16.2014 22.6947 16.1438 22.6947C16.0861 22.6947 16.0393 22.6479 16.0393 22.5903C16.0393 22.586 16.0395 22.5818 16.0402 22.5775C16.0253 22.5856 16.0083 22.5903 15.9902 22.5903C15.9834 22.5903 15.9768 22.5896 15.9704 22.5884H15.9706Z" fill="#231F20" stroke="#231F20" stroke-width="0.00693252" stroke-miterlimit="2.61"/>
<path fill-rule="evenodd" clip-rule="evenodd" d="M12.8225 26.4602C12.8225 26.4602 13.0535 25.9771 13.1691 25.7357C13.422 25.6062 13.9113 25.3975 14.5608 25.3805C15.2289 25.3631 15.7404 25.5568 15.9999 25.6764C16.3645 25.5243 17.1435 25.2639 18.0591 25.4745C18.3404 25.5392 18.5805 25.636 18.7771 25.7359C18.8926 25.9773 19.0081 26.219 19.1236 26.4604C19.0692 26.501 19.0147 26.5419 18.9603 26.5825C18.9886 26.6325 19.0166 26.6822 19.0449 26.7322C18.999 26.7782 18.953 26.8241 18.9071 26.8701C18.6752 26.7363 18.2146 26.5127 17.5941 26.4834C16.8136 26.4463 16.2343 26.738 15.9997 26.8732C15.7335 26.7324 15.1692 26.4795 14.4138 26.4838C13.7 26.4878 13.1637 26.7192 12.898 26.8562C12.8519 26.8101 12.8057 26.7639 12.7598 26.718C12.7832 26.6673 12.8744 26.5718 12.8744 26.5718L12.8223 26.4606L12.8225 26.4602Z" fill="#231F20"/>
<path fill-rule="evenodd" clip-rule="evenodd" d="M15.9998 25.9129C15.7641 25.7872 15.261 25.5598 14.5881 25.5664C13.9867 25.5724 13.5315 25.7623 13.2969 25.8804C13.2418 26.0169 13.1867 26.1535 13.1313 26.2898C13.3919 26.1714 13.9229 25.972 14.6149 26.0063C15.2668 26.0388 15.7518 26.2632 15.9998 26.4C16.2209 26.2622 16.6804 26.0169 17.3128 25.9731C18.0478 25.9223 18.602 26.1722 18.8341 26.2937C18.7736 26.1558 18.7132 26.018 18.6528 25.8802C18.4026 25.7627 17.8982 25.5671 17.2398 25.593C16.6718 25.6153 16.2387 25.7932 15.9998 25.9127V25.9129Z" fill="white"/>
<path fill-rule="evenodd" clip-rule="evenodd" d="M9.19177 26.0395C9.14391 25.9518 9.27621 25.8491 9.3681 25.924C10.2451 26.6386 10.7251 26.6835 11.8099 27.0632L12.0156 27.7111C12.039 28.3832 12.3755 28.5223 12.5827 29.1492C11.8748 29.0045 11.4209 28.784 10.8927 28.3169C10.2468 27.7455 9.58803 26.7652 9.19177 26.0397V26.0395Z" fill="#231F20"/>
<path fill-rule="evenodd" clip-rule="evenodd" d="M12.2677 28.8724C12.0642 28.6337 11.9916 28.3391 11.9761 28.0113C11.9667 27.815 11.5703 27.6557 11.5915 27.4728C11.148 27.3175 10.993 27.1329 10.5759 26.9274C10.2479 26.766 9.9165 26.5839 9.60596 26.3306C9.91289 26.931 10.528 27.7265 11.1383 28.2562C11.5456 28.6099 12.0186 28.8724 12.2677 28.8724Z" fill="white"/>
<path fill-rule="evenodd" clip-rule="evenodd" d="M11.878 27.9247C11.1695 27.6973 10.4761 26.8659 10.0737 26.2682C9.7642 25.8085 9.44684 25.25 9.19181 24.7097C9.14927 24.6195 9.27626 24.5194 9.36814 24.5942C10.1522 25.233 10.9245 25.8515 11.8974 26.192L12.0322 26.2393L12.0157 26.3813C11.9648 26.8174 11.9633 27.2775 12.1024 27.6986L12.2126 28.0319L11.8782 27.9245L11.878 27.9247Z" fill="#231F20"/>
<path fill-rule="evenodd" clip-rule="evenodd" d="M11.9328 27.7544C11.7871 27.3135 11.783 26.833 11.8383 26.3604C11.046 26.083 10.2939 25.5791 9.58813 25.0038C10.0527 26.1273 11.0824 27.4813 11.933 27.7544H11.9328Z" fill="#ED1C24"/>
<path fill-rule="evenodd" clip-rule="evenodd" d="M22.6931 26.0395C22.741 25.9518 22.6087 25.8491 22.5168 25.924C21.6398 26.6386 21.1598 26.6835 20.075 27.0632L19.8693 27.7111C19.8459 28.3832 19.5094 28.5223 19.3022 29.1492C20.0101 29.0045 20.464 28.784 20.9922 28.3169C21.6381 27.7455 22.2969 26.7652 22.6931 26.0397V26.0395Z" fill="#231F20"/>
<path fill-rule="evenodd" clip-rule="evenodd" d="M19.6177 28.8724C19.8212 28.6337 19.8938 28.3391 19.9093 28.0113C19.9187 27.815 20.3151 27.6557 20.2939 27.4728C20.7373 27.3175 20.8924 27.1329 21.3095 26.9274C21.6375 26.766 21.9689 26.5839 22.2794 26.3306C21.9725 26.931 21.3574 27.7265 20.7471 28.2562C20.3398 28.6099 19.8668 28.8724 19.6177 28.8724Z" fill="white"/>
<path fill-rule="evenodd" clip-rule="evenodd" d="M20.0069 27.9247C20.7155 27.6973 21.4089 26.8659 21.8113 26.2682C22.1208 25.8085 22.4381 25.25 22.6932 24.7097C22.7357 24.6195 22.6087 24.5194 22.5168 24.5942C21.7328 25.233 20.9605 25.8515 19.9876 26.192L19.8527 26.2393L19.8693 26.3813C19.9202 26.8174 19.9217 27.2775 19.7825 27.6986L19.6724 28.0319L20.0067 27.9245L20.0069 27.9247Z" fill="#231F20"/>
<path fill-rule="evenodd" clip-rule="evenodd" d="M19.9524 27.7544C20.0981 27.3135 20.1021 26.833 20.0468 26.3604C20.8391 26.083 21.5912 25.5791 22.297 25.0038C21.8322 26.1273 20.8027 27.4813 19.9521 27.7544H19.9524Z" fill="#ED1C24"/>
<path fill-rule="evenodd" clip-rule="evenodd" d="M19.6256 28.6972C18.9977 28.8002 18.3695 28.904 17.7376 28.981C16.9056 29.0822 16.0826 29.1303 15.2442 29.1003C14.2246 29.0639 13.2165 28.9172 12.2196 28.7034L12.0958 28.6768L12.069 28.553C11.9692 28.0936 11.8694 27.6341 11.7697 27.1747L11.7061 26.8822L11.9996 26.9403C13.9455 27.3253 15.8567 27.4553 17.8327 27.2572C18.5301 27.1875 19.2225 27.0792 19.9094 26.9405L20.217 26.8784L20.1385 27.1822C20.0205 27.639 19.9022 28.0957 19.7841 28.5526L19.752 28.6766L19.6256 28.6972Z" fill="#231F20"/>
<path fill-rule="evenodd" clip-rule="evenodd" d="M19.9482 27.1329C17.3724 27.6528 14.9071 27.7157 11.9612 27.1329C12.061 27.5924 12.1607 28.0518 12.2605 28.5112C15.4321 29.1917 17.2822 28.882 19.5936 28.5034C19.7116 28.0465 19.8299 27.5898 19.948 27.1329H19.9482Z" fill="white"/>
<path d="M12.7077 27.802L12.7002 27.8005L12.6169 28.2321C12.6117 28.2589 12.6128 28.2772 12.6203 28.2868C12.6279 28.2961 12.6481 28.3051 12.6809 28.3138L12.673 28.3542L12.4707 28.3153L12.4786 28.2749C12.5124 28.2791 12.5345 28.2785 12.5449 28.2725C12.5554 28.2663 12.5632 28.25 12.5683 28.2232L12.6385 27.859C12.6437 27.8322 12.6426 27.8139 12.6351 27.8046C12.6277 27.7952 12.6075 27.7863 12.5743 27.7776L12.5822 27.7371L12.8345 27.7859L12.8864 28.1993L13.0804 27.8335L13.335 27.8826L13.3272 27.923C13.2931 27.9186 13.2706 27.9194 13.2602 27.9256C13.2495 27.9316 13.2416 27.9481 13.2365 27.9747L13.1663 28.3389C13.1612 28.3655 13.1625 28.3838 13.1702 28.3933C13.1778 28.4031 13.1982 28.4121 13.2312 28.4206L13.2233 28.461L12.9306 28.4046L12.9385 28.3642C12.9723 28.3684 12.9945 28.3678 13.0049 28.3619C13.0153 28.3557 13.0232 28.3393 13.0283 28.3125L13.1115 27.8809L13.1053 27.8797L12.8368 28.3867L12.7787 28.3755L12.707 27.8029L12.7077 27.802ZM14.0217 28.3151L14.1813 28.3291L14.1264 28.0924L14.0217 28.3151ZM13.8335 28.5386L13.8371 28.4976C13.855 28.4954 13.8698 28.4893 13.8818 28.4793C13.8937 28.4693 13.906 28.451 13.9192 28.4244L14.1385 27.9741L14.2328 27.9824L14.3647 28.4731C14.3715 28.4982 14.3798 28.5163 14.3898 28.5269C14.3998 28.5375 14.4146 28.5452 14.4342 28.5501L14.4306 28.5911L14.1455 28.566L14.1492 28.525C14.1747 28.5256 14.1928 28.5237 14.203 28.5195C14.2132 28.515 14.2189 28.5071 14.22 28.4952C14.2204 28.4905 14.2194 28.4818 14.2166 28.4697C14.2162 28.468 14.216 28.4671 14.216 28.4667L14.1949 28.3716L14.0032 28.3548L13.9728 28.4257L13.9717 28.4282C13.9634 28.4467 13.9592 28.4601 13.9583 28.4682C13.9573 28.4799 13.9609 28.489 13.9694 28.4956C13.9779 28.502 13.9937 28.508 14.0171 28.5133L14.0134 28.5543L13.833 28.5386H13.8335ZM15.5428 28.4423L15.5477 28.1536C15.5481 28.1264 15.5436 28.1085 15.5343 28.1004C15.5249 28.0924 15.5036 28.087 15.4704 28.0845L15.4711 28.0432L15.6764 28.0466L15.6757 28.0879C15.6419 28.0894 15.6202 28.0941 15.6108 28.1019C15.6015 28.1098 15.5966 28.1272 15.5962 28.1543L15.5879 28.6439L15.5228 28.6428L15.1715 28.1715L15.1656 28.518C15.1652 28.545 15.1694 28.5629 15.1784 28.5709C15.1875 28.5792 15.209 28.5846 15.2428 28.5873L15.2422 28.6286L15.0377 28.6252L15.0384 28.5839C15.0724 28.5818 15.0939 28.5771 15.103 28.5697C15.112 28.5622 15.1167 28.5448 15.1171 28.5173L15.1233 28.1466C15.1237 28.1192 15.1196 28.1017 15.1109 28.0939C15.1022 28.0862 15.0809 28.0807 15.0469 28.0775L15.0475 28.0362L15.2411 28.0394L15.5426 28.4423H15.5428ZM16.4318 28.3842L16.5917 28.3778L16.5073 28.1498L16.4318 28.384V28.3842ZM16.2735 28.6299L16.2718 28.5886C16.2892 28.5843 16.3033 28.5763 16.3137 28.5648C16.3241 28.5533 16.3341 28.5337 16.3439 28.5056L16.5043 28.0311L16.599 28.0273L16.7921 28.4973C16.8019 28.5216 16.8126 28.5382 16.8238 28.5475C16.8351 28.5567 16.8509 28.5626 16.8709 28.565L16.8726 28.6062L16.5866 28.6175L16.5849 28.5763C16.6105 28.5737 16.6279 28.5697 16.6375 28.5639C16.6471 28.5582 16.6517 28.5497 16.6513 28.5378C16.6513 28.5331 16.649 28.5246 16.6447 28.5129C16.6441 28.5114 16.6439 28.5103 16.6439 28.5101L16.6109 28.4184L16.4186 28.4261L16.3975 28.5003L16.3969 28.5031C16.3911 28.5227 16.3884 28.5363 16.3888 28.5446C16.3892 28.5563 16.3941 28.565 16.4033 28.5703C16.4124 28.5756 16.429 28.5794 16.4528 28.5816L16.4545 28.6228L16.2737 28.6301L16.2735 28.6299ZM17.6516 28.0571L17.6935 28.4244C17.6969 28.4535 17.7039 28.4716 17.7148 28.4788C17.7256 28.4859 17.7462 28.4878 17.776 28.4844C17.836 28.4776 17.8762 28.4542 17.8966 28.4146C17.9169 28.3748 17.9217 28.3078 17.9109 28.2136C17.9003 28.1196 17.8805 28.0556 17.8518 28.0217C17.823 27.9879 17.7788 27.9743 17.7186 27.9811C17.6886 27.9845 17.669 27.9909 17.6601 28.0003C17.6512 28.0096 17.6484 28.0285 17.6516 28.0571ZM17.4916 28.5584L17.4869 28.5176C17.5156 28.5114 17.5337 28.5037 17.5414 28.4946C17.5488 28.4856 17.5512 28.4682 17.5482 28.442L17.5061 28.0736C17.5031 28.0477 17.4969 28.0311 17.4876 28.0241C17.478 28.0169 17.4586 28.0134 17.4293 28.0141L17.4246 27.973L17.7054 27.9409C17.8126 27.9286 17.8973 27.9443 17.9598 27.9879C18.0224 28.0315 18.059 28.1007 18.0696 28.1953C18.0804 28.2902 18.0602 28.3659 18.0094 28.4227C17.9583 28.4795 17.8794 28.5139 17.7722 28.5263L17.4914 28.5584H17.4916ZM19.0373 28.2789C19.0796 28.2681 19.1045 28.2419 19.1122 28.2004C19.1199 28.1587 19.1111 28.089 19.0858 27.9909C19.0607 27.8935 19.035 27.8286 19.008 27.7959C18.9812 27.7633 18.9465 27.7525 18.9046 27.7633C18.8622 27.7742 18.8373 27.8003 18.8297 27.8418C18.822 27.8835 18.8308 27.9528 18.8556 28.0502C18.8807 28.1483 18.9069 28.2136 18.9337 28.2464C18.9605 28.2789 18.995 28.2897 19.0371 28.2789H19.0373ZM19.0477 28.3195C19.0111 28.3289 18.9756 28.3317 18.9412 28.3272C18.9069 28.3227 18.8739 28.3117 18.8425 28.2938C18.8067 28.2734 18.7767 28.2459 18.7518 28.2115C18.7272 28.177 18.7089 28.1368 18.6969 28.0907C18.6852 28.0449 18.6818 28.0011 18.6869 27.9592C18.6923 27.9173 18.7057 27.8786 18.7274 27.8429C18.7463 27.812 18.7697 27.7863 18.7978 27.7661C18.8259 27.7457 18.858 27.7308 18.8941 27.7216C18.9303 27.7123 18.9656 27.7097 19.0001 27.7142C19.0345 27.7184 19.0673 27.7297 19.0986 27.7478C19.1352 27.7686 19.1656 27.7961 19.1905 27.8301C19.2152 27.8643 19.2332 27.9041 19.2452 27.9501C19.2571 27.996 19.2603 28.0398 19.2552 28.0817C19.2498 28.1236 19.2366 28.1623 19.2152 28.1981C19.1962 28.2289 19.1728 28.2547 19.1447 28.2749C19.1167 28.2953 19.0843 28.3102 19.048 28.3195H19.0477Z" fill="#231F20"/>
<path fill-rule="evenodd" clip-rule="evenodd" d="M6.76076 29.4773C5.77666 28.019 4.87808 26.535 4.10182 24.955C3.8374 24.4165 3.58765 23.8707 3.35599 23.3172C2.67609 21.6935 2.16851 20.0325 1.81453 18.3083C1.39736 16.2759 1.19484 14.2008 1.10656 12.1297L1.104 12.0693L1.13868 12.0198C1.97769 10.8186 2.94009 9.69513 3.97418 8.65821C5.08039 7.54875 6.28105 6.52693 7.54915 5.60699C8.03354 5.25561 8.52856 4.91869 9.03231 4.59538C10.14 3.88453 11.2917 3.23855 12.473 2.65788C13.5999 2.104 14.7582 1.60734 15.9391 1.18023L15.9999 1.15833L16.0608 1.18023C17.2416 1.60734 18.4 2.104 19.5268 2.65788C20.7081 3.23834 21.8596 3.88453 22.9675 4.59538C23.4713 4.91869 23.9661 5.25561 24.4507 5.60699C25.7188 6.52693 26.9192 7.54875 28.0257 8.65821C29.0598 9.69513 30.0224 10.8186 30.8612 12.0198L30.8958 12.0693L30.8933 12.1297C30.805 14.2008 30.6027 16.2759 30.1853 18.3083C29.8313 20.0325 29.3238 21.6937 28.6439 23.3172C28.412 23.8707 28.1625 24.4165 27.898 24.955C27.122 26.535 26.2232 28.019 25.2391 29.4773L25.2008 29.5339L25.1344 29.5505C22.1421 30.3024 19.0975 30.9103 16.0001 30.9103C12.9028 30.9103 9.85814 30.3024 6.86585 29.5505L6.79948 29.5339L6.76119 29.4773H6.76076ZM15.9997 30.7318C12.9693 30.7318 9.99025 30.1518 6.90882 29.3773C5.81666 27.7587 4.99189 26.3619 4.26222 24.8761C2.49527 21.2787 1.51904 17.6196 1.28504 12.1221C2.87117 9.85104 5.08422 7.61576 7.65402 5.75163C10.2621 3.85965 13.2357 2.34797 15.9997 1.34848C18.764 2.34818 21.7375 3.85986 24.3454 5.75163C26.9152 7.61576 29.1283 9.85126 30.7144 12.1221C30.4802 17.6196 29.5042 21.2787 27.7372 24.8761C27.0075 26.3616 26.1828 27.7587 25.0906 29.3773C22.0092 30.1518 19.0301 30.7318 15.9997 30.7318Z" fill="#231F20"/>
<path d="M5.64638 15.3107L6.12524 15.4574C6.21927 15.4864 6.28011 15.4987 6.30798 15.4945C6.33563 15.4906 6.36158 15.4762 6.3852 15.4513C6.40838 15.4266 6.43221 15.3751 6.45625 15.2971L6.5005 15.3107L6.2316 16.1874L6.18736 16.1738C6.21182 16.0941 6.22118 16.0375 6.21459 16.0047C6.20863 15.9715 6.19523 15.9456 6.1748 15.9271C6.1546 15.9082 6.09737 15.8843 6.00313 15.8554L4.88161 15.5115C4.78758 15.4825 4.72674 15.4702 4.69887 15.4745C4.67122 15.4783 4.64547 15.4923 4.62186 15.5168C4.59867 15.5415 4.57485 15.5929 4.5506 15.6718L4.50635 15.6582L4.73695 14.9063C4.81289 14.6587 4.9116 14.4945 5.03265 14.4139C5.15433 14.3331 5.28091 14.3131 5.41322 14.3537C5.52555 14.3882 5.61085 14.4522 5.66914 14.5464C5.72764 14.6402 5.75253 14.7528 5.74402 14.884C5.73934 14.9723 5.70658 15.1146 5.64638 15.3107ZM4.80077 15.0514L5.54767 15.2805C5.55809 15.2528 5.56533 15.2318 5.56979 15.2175C5.60149 15.1139 5.59532 15.0242 5.55086 14.9493C5.5064 14.8744 5.41961 14.817 5.29048 14.7774C5.1622 14.7381 5.05988 14.7374 4.98329 14.7753C4.90671 14.813 4.85097 14.888 4.81694 14.9991L4.80077 15.0514ZM5.42492 13.0001C5.5364 12.7353 5.71041 12.5585 5.94739 12.4705C6.1848 12.3826 6.42413 12.3947 6.66685 12.5075C6.87384 12.6036 7.02786 12.7491 7.12912 12.9435C7.26314 13.2011 7.26208 13.4768 7.12572 13.7705C6.98893 14.0651 6.78386 14.2463 6.50986 14.3148C6.2933 14.3688 6.07716 14.3461 5.86124 14.2457C5.61851 14.1329 5.45492 13.9566 5.36983 13.716C5.28452 13.4755 5.30345 13.2373 5.42492 13.0001ZM5.5081 13.0212C5.43833 13.1713 5.46151 13.3206 5.57788 13.47C5.6734 13.5918 5.83848 13.7069 6.07291 13.8158C6.35159 13.9451 6.58049 13.9915 6.75961 13.9549C6.88448 13.9294 6.97553 13.8552 7.03275 13.7316C7.07126 13.6484 7.08338 13.5695 7.06934 13.4955C7.05084 13.4008 6.99425 13.307 6.8998 13.2153C6.80534 13.1235 6.66728 13.0354 6.48624 12.9514C6.27011 12.8512 6.09907 12.7963 5.97335 12.787C5.8472 12.7774 5.74764 12.7938 5.67467 12.8359C5.60171 12.878 5.54597 12.9397 5.5081 13.0212ZM7.97303 11.0926L8.44785 11.5144L7.52097 12.8155L7.48332 12.7887L7.51778 12.7402C7.54799 12.6976 7.5648 12.6579 7.56799 12.6213C7.57118 12.5951 7.56394 12.5683 7.54629 12.5407C7.53437 12.5204 7.49162 12.4839 7.41716 12.4309L6.44838 11.7409C6.37265 11.6869 6.32244 11.6573 6.29798 11.6518C6.2733 11.6465 6.24543 11.6505 6.21416 11.6645C6.18268 11.6784 6.15247 11.7058 6.1229 11.7473L6.08844 11.7958L6.05078 11.769L6.60814 10.9864L6.64579 11.0132L6.60006 11.0775C6.56985 11.12 6.55304 11.1598 6.54943 11.1968C6.54645 11.223 6.55326 11.2502 6.57006 11.2789C6.58197 11.2991 6.62473 11.3357 6.69919 11.3887L7.63691 12.0565C7.71201 12.1099 7.76306 12.1397 7.78987 12.1459C7.81667 12.152 7.8439 12.1459 7.87219 12.1282C7.89134 12.1146 7.9258 12.0733 7.97473 12.0046L8.06152 11.8828C8.11684 11.8051 8.14917 11.7307 8.15874 11.6596C8.16832 11.5884 8.15704 11.5127 8.12492 11.4327C8.09258 11.3529 8.03089 11.2549 7.93963 11.1392L7.97303 11.0926ZM9.12285 10.6702L9.15795 10.7004L8.544 11.4108L8.5089 11.3806L8.54783 11.3357C8.58187 11.2963 8.60229 11.2581 8.6091 11.2219C8.61463 11.1962 8.60995 11.1687 8.59506 11.1396C8.58506 11.1185 8.54592 11.0779 8.47678 11.0183L7.57671 10.2407C7.50629 10.1799 7.45907 10.1456 7.43545 10.1378C7.41142 10.1301 7.38312 10.1316 7.351 10.1426C7.31824 10.1533 7.28569 10.178 7.25251 10.2165L7.21358 10.2613L7.17847 10.2311L7.79242 9.52071L7.82752 9.55091L7.78859 9.59579C7.75477 9.63493 7.73477 9.67279 7.72796 9.70895C7.72264 9.73447 7.7269 9.76212 7.74136 9.7919C7.75136 9.81296 7.7905 9.85359 7.85964 9.91314L8.75971 10.6908C8.83013 10.7516 8.87735 10.7859 8.90118 10.7933C8.92543 10.8005 8.95372 10.799 8.98606 10.788C9.01882 10.7771 9.05137 10.7527 9.08391 10.7148L9.12285 10.6702ZM9.25368 8.20578L9.57277 8.57376L9.53788 8.60396C9.44258 8.5376 9.366 8.49718 9.30792 8.48272C9.24942 8.46804 9.18794 8.46975 9.12327 8.48719C9.08753 8.49718 9.03754 8.52973 8.97393 8.58482L8.87118 8.67394L9.78402 9.72682C9.84486 9.79701 9.88677 9.83763 9.90953 9.8487C9.93229 9.85954 9.96058 9.86188 9.99398 9.85593C10.0278 9.84997 10.0635 9.8304 10.1021 9.79701L10.1465 9.7583L10.1767 9.79318L9.46726 10.4083L9.43705 10.3734L9.48194 10.3345C9.52108 10.3007 9.54639 10.266 9.55809 10.2313C9.56682 10.2069 9.5666 10.1788 9.55661 10.1473C9.5498 10.125 9.51682 10.0793 9.45705 10.0103L8.54421 8.95769L8.44551 9.04319C8.35424 9.12232 8.3051 9.1991 8.29723 9.27376C8.28617 9.3782 8.3168 9.48668 8.38849 9.60047L8.34935 9.63429L8.03025 9.26632L9.25368 8.20578ZM10.2486 7.6853L10.6103 8.32511L10.6415 8.30745C10.7415 8.25109 10.7962 8.17898 10.8058 8.09114C10.8151 8.0035 10.7919 7.89524 10.7354 7.76676L10.7805 7.74124L11.2451 8.56333L11.2 8.58886C11.1402 8.50442 11.0789 8.44209 11.0172 8.40189C10.9549 8.36169 10.8989 8.34276 10.8481 8.34531C10.7975 8.34787 10.7345 8.37041 10.6596 8.41274L10.9092 8.85431C10.9581 8.94088 10.9913 8.99129 11.0098 9.00639C11.0279 9.02171 11.0506 9.02979 11.0776 9.03064C11.1047 9.03149 11.1406 9.01958 11.1853 8.99427L11.2793 8.94109C11.4259 8.85835 11.5244 8.75796 11.5746 8.64033C11.6248 8.52292 11.6301 8.38381 11.5899 8.22322L11.6329 8.19898L11.8441 8.73775L10.4884 9.5039L10.4656 9.4637L10.5173 9.43456C10.5626 9.40883 10.5947 9.3799 10.6132 9.34799C10.6271 9.32566 10.632 9.29822 10.6277 9.26589C10.6256 9.24271 10.6022 9.19123 10.5573 9.11189L9.97207 8.07646C9.93165 8.00499 9.90485 7.96224 9.89166 7.94799C9.86868 7.92502 9.84273 7.91204 9.81359 7.90928C9.7721 7.90396 9.72594 7.91544 9.6751 7.94437L9.6234 7.97351L9.60064 7.93331L10.9134 7.19162L11.1759 7.65595L11.1308 7.68147C11.0445 7.58022 10.9668 7.51684 10.8987 7.49025C10.8307 7.46366 10.7532 7.45941 10.6662 7.47791C10.6154 7.48834 10.5307 7.52684 10.4122 7.59384L10.2486 7.68615V7.6853ZM12.6221 7.22012L13.4921 7.74358C13.6151 7.81739 13.714 7.86163 13.7889 7.87673C13.8427 7.88715 13.8944 7.8829 13.9431 7.86461L13.9593 7.908L13.0818 8.23556L13.0656 8.19217C13.1194 8.16622 13.1518 8.1441 13.1633 8.12559C13.1748 8.10688 13.1771 8.08858 13.1701 8.06987C13.1569 8.03456 13.0943 7.98244 12.9816 7.91374L12.4134 7.57193L12.3691 7.64659L12.5417 8.109C12.5748 8.19791 12.6006 8.25109 12.6185 8.26917C12.6368 8.28703 12.6629 8.29852 12.697 8.3032C12.7312 8.3083 12.7797 8.29895 12.842 8.27555L12.8582 8.31894L12.0064 8.63693L11.9903 8.59354L12.046 8.57269C12.0949 8.5544 12.1311 8.53079 12.1543 8.50229C12.1715 8.4823 12.1807 8.45613 12.1815 8.42338C12.183 8.40019 12.1679 8.34574 12.136 8.26023L11.7199 7.1461C11.6873 7.0591 11.6624 7.00635 11.6454 6.98806C11.628 6.96998 11.6025 6.95764 11.5688 6.95169C11.535 6.94552 11.4946 6.95126 11.4469 6.96913L11.3912 6.98998L11.375 6.94658L12.2141 6.63349L12.2302 6.67688C12.1732 6.69815 12.1326 6.72303 12.1092 6.75069C12.0919 6.77068 12.0822 6.79663 12.0802 6.82875C12.0783 6.85321 12.0932 6.90872 12.1253 6.99487L12.3223 7.52216L12.7621 6.78195C12.8223 6.67752 12.8442 6.60371 12.828 6.56074C12.8159 6.52841 12.7889 6.51012 12.7461 6.50459C12.7244 6.50204 12.6772 6.51288 12.6038 6.53735L12.5876 6.49395L13.245 6.24849L13.2611 6.29189C13.2037 6.31826 13.1613 6.34613 13.1341 6.37612C13.1069 6.40568 13.0514 6.4931 12.9676 6.63774L12.6221 7.22012ZM14.2971 6.10556L15.3323 7.0891L15.2246 6.32188C15.2095 6.21361 15.184 6.14299 15.1476 6.10918C15.0981 6.06344 15.0236 6.04877 14.9247 6.06451L14.9183 6.01878L15.5086 5.93604L15.515 5.98177C15.441 6.00219 15.3918 6.02197 15.368 6.0409C15.3446 6.06025 15.328 6.08812 15.318 6.12534C15.3085 6.16235 15.3097 6.22361 15.3216 6.30848L15.5303 7.79612L15.4859 7.80229L14.0708 6.48183L14.2305 7.62085C14.245 7.72422 14.2782 7.79101 14.3305 7.82079C14.3829 7.85057 14.4397 7.86099 14.5003 7.85248L14.5424 7.84653L14.5488 7.89226L13.9127 7.98138L13.9063 7.93565C14.005 7.92097 14.0706 7.8912 14.104 7.84568C14.1369 7.80037 14.1469 7.73018 14.1335 7.63446L13.9563 6.37101L13.9125 6.32996C13.868 6.28678 13.8302 6.25956 13.7989 6.24828C13.7681 6.23701 13.7251 6.23424 13.6704 6.2402L13.664 6.19447L14.2971 6.10556ZM16.7484 7.76315L16.7472 7.8093L15.8086 7.78314L15.8099 7.73699L15.8692 7.73869C15.9213 7.74018 15.9639 7.73188 15.996 7.71401C16.0194 7.70189 16.0377 7.68126 16.0509 7.65105C16.0611 7.63 16.0675 7.57406 16.07 7.48281L16.1032 6.29401C16.1058 6.20106 16.1024 6.14278 16.0936 6.1196C16.0843 6.0962 16.0654 6.07536 16.0364 6.05728C16.0075 6.03877 15.9677 6.02899 15.9171 6.02771L15.8577 6.02601L15.859 5.97985L16.7976 6.00601L16.7963 6.05217L16.7369 6.05047C16.6853 6.04898 16.6433 6.05749 16.611 6.07514C16.588 6.08727 16.5693 6.1079 16.5553 6.1381C16.5451 6.15916 16.5387 6.21531 16.5361 6.30635L16.5029 7.49514C16.5004 7.58809 16.5038 7.64616 16.5132 7.66956C16.5229 7.69296 16.5419 7.7138 16.5708 7.73188C16.5997 7.75039 16.6395 7.76017 16.6893 7.76145L16.7484 7.76315ZM18.0693 6.90553L18.5356 7.80739C18.6015 7.93459 18.6626 8.02435 18.7183 8.07646C18.7588 8.11347 18.8049 8.13687 18.8562 8.14708L18.8473 8.19238L17.928 8.01137L17.937 7.96607C17.9963 7.97223 18.0355 7.97032 18.055 7.96075C18.0746 7.95075 18.0863 7.93629 18.0901 7.91672C18.0974 7.87971 18.0714 7.8025 18.0114 7.68487L17.7068 7.0959L17.63 7.13631L17.5345 7.62043C17.5162 7.71338 17.51 7.77229 17.5158 7.79697C17.5219 7.82185 17.5381 7.84525 17.5649 7.86716C17.5915 7.88949 17.6374 7.90694 17.703 7.9197L17.694 7.965L16.802 7.78931L16.811 7.744L16.8693 7.75549C16.9205 7.76549 16.9637 7.76442 16.9984 7.7523C17.0235 7.74422 17.045 7.72678 17.0629 7.69934C17.0763 7.68019 17.092 7.62596 17.1097 7.53662L17.3396 6.36974C17.3577 6.27849 17.3639 6.22063 17.359 6.19596C17.3537 6.17128 17.3386 6.14746 17.3128 6.12491C17.2873 6.10194 17.2498 6.08578 17.2001 6.07578L17.1418 6.06429L17.1507 6.01899L18.0293 6.19213L18.0204 6.23743C17.9608 6.22574 17.9131 6.22552 17.8785 6.2368C17.8534 6.24488 17.8315 6.26168 17.8129 6.28806C17.7985 6.30784 17.7821 6.36293 17.7642 6.45312L17.6553 7.00529L18.418 6.60541C18.5241 6.54819 18.5813 6.49651 18.5903 6.45163C18.5969 6.41781 18.5835 6.38782 18.5499 6.36101C18.5326 6.3474 18.4867 6.33187 18.4116 6.31443L18.4205 6.26891L19.1091 6.40462L19.1002 6.44992C19.0374 6.44227 18.9868 6.44376 18.9481 6.45503C18.9094 6.46588 18.8164 6.5114 18.669 6.59052L18.0693 6.90511V6.90553ZM20.8759 7.16673L21.0997 8.57695L21.4809 7.90247C21.5347 7.80739 21.5575 7.73571 21.5492 7.68679C21.5377 7.62043 21.4877 7.56342 21.3994 7.51578L21.4222 7.47557L21.941 7.76889L21.9183 7.80909C21.847 7.78038 21.7961 7.76613 21.7657 7.76655C21.7353 7.76762 21.7051 7.77974 21.6747 7.80314C21.6447 7.82675 21.6083 7.87609 21.5662 7.95075L20.8269 9.25866L20.7878 9.23654L20.4674 7.32796L19.9013 8.32936C19.8501 8.42019 19.8358 8.49336 19.8592 8.54887C19.8826 8.60439 19.9215 8.64714 19.9747 8.67713L20.0117 8.69819L19.989 8.73839L19.4297 8.42231L19.4525 8.38211C19.5399 8.4304 19.6099 8.44656 19.6641 8.43082C19.718 8.41487 19.7684 8.36531 19.816 8.28108L20.4438 7.17035L20.434 7.11122C20.4249 7.04974 20.4115 7.00529 20.3934 6.97743C20.3757 6.94977 20.3432 6.92149 20.2964 6.89298L20.3191 6.85278L20.8757 7.16716L20.8759 7.16673ZM22.6796 8.45082L22.2261 9.02894L22.2544 9.05106C22.3446 9.12189 22.432 9.14486 22.5171 9.1204C22.6018 9.09573 22.693 9.03298 22.7902 8.93174L22.8309 8.96364L22.2478 9.70661L22.2071 9.6747C22.2625 9.58728 22.2967 9.50688 22.3103 9.43456C22.3237 9.36161 22.3199 9.30248 22.2982 9.25674C22.2765 9.2108 22.2318 9.16145 22.164 9.10828L21.8508 9.50731C21.7895 9.58537 21.7555 9.63535 21.7485 9.65833C21.7413 9.68087 21.7425 9.70491 21.7521 9.73022C21.7617 9.75553 21.7864 9.78425 21.8268 9.81594L21.9117 9.88251C22.044 9.98631 22.1746 10.0391 22.3022 10.0408C22.4301 10.0425 22.5607 9.9944 22.6939 9.89591L22.7328 9.92633L22.3152 10.3268L21.0901 9.36565L21.1186 9.32928L21.1654 9.36586C21.2064 9.39798 21.2456 9.4167 21.282 9.42159C21.3079 9.42584 21.3352 9.4201 21.3634 9.40372C21.3841 9.39287 21.4228 9.35161 21.479 9.27993L22.2133 8.34425C22.2639 8.27959 22.2933 8.23875 22.3014 8.22088C22.3139 8.19089 22.3158 8.16197 22.3073 8.13389C22.2963 8.09348 22.2682 8.05519 22.222 8.01924L22.1752 7.98266L22.2037 7.94629L23.3901 8.87707L23.0608 9.29673L23.0202 9.26483C23.0808 9.14635 23.11 9.05042 23.1087 8.97725C23.1072 8.90408 23.0817 8.83091 23.0315 8.75753C23.0023 8.71457 22.9347 8.65097 22.8275 8.56695L22.6796 8.45082ZM25.0448 10.621L24.5648 11.0356L24.5346 11.0005C24.6261 10.8429 24.667 10.6895 24.6572 10.5408C24.6474 10.3921 24.5963 10.2643 24.504 10.1575C24.4157 10.0552 24.3138 9.99503 24.1979 9.97674C24.0817 9.95824 23.9603 9.97929 23.8337 10.0397C23.7067 10.1003 23.5895 10.1769 23.4818 10.2701C23.351 10.383 23.2497 10.4968 23.1781 10.6129C23.1061 10.7289 23.0772 10.841 23.0902 10.9496C23.1032 11.0583 23.1504 11.1596 23.2321 11.2538C23.2606 11.2868 23.2931 11.3174 23.3299 11.3455C23.3667 11.3742 23.4076 11.4006 23.452 11.425L23.7341 11.1813C23.7888 11.1341 23.8207 11.0998 23.8307 11.0788C23.8403 11.0579 23.8418 11.0296 23.8345 10.9958C23.8277 10.9616 23.8103 10.9282 23.782 10.8954L23.7518 10.8605L23.7867 10.8303L24.3598 11.4933L24.3247 11.5235C24.2777 11.4761 24.2402 11.4465 24.2124 11.4359C24.1847 11.4255 24.1539 11.4252 24.12 11.4359C24.1019 11.4408 24.0675 11.4652 24.0169 11.5088L23.7348 11.7526C23.6205 11.699 23.5131 11.6335 23.4121 11.5567C23.3112 11.4795 23.2168 11.3904 23.1293 11.2891C23.0179 11.16 22.9426 11.0375 22.9041 10.9216C22.8651 10.8059 22.8464 10.6904 22.8473 10.5755C22.8483 10.4609 22.8685 10.3539 22.9085 10.2552C22.9602 10.1284 23.0438 10.0155 23.1581 9.91676C23.3633 9.73937 23.5986 9.66194 23.8645 9.68406C24.1309 9.7064 24.3585 9.82679 24.5474 10.0454C24.6061 10.1133 24.6536 10.1786 24.6899 10.2424C24.7099 10.2767 24.7361 10.3375 24.7682 10.4253C24.8001 10.513 24.8216 10.5627 24.832 10.5746C24.8484 10.5936 24.8703 10.6051 24.898 10.6093C24.9256 10.6136 24.9646 10.6057 25.0146 10.5859L25.0448 10.621ZM25.5979 11.7411L24.9624 12.1101L24.9805 12.1412C25.0382 12.2403 25.1109 12.2941 25.1988 12.3029C25.2864 12.3111 25.3945 12.2867 25.5224 12.2286L25.5483 12.2733L24.7316 12.7476L24.7057 12.7029C24.7895 12.6421 24.851 12.5802 24.8903 12.5179C24.9299 12.4552 24.9482 12.3988 24.945 12.3482C24.9418 12.2975 24.9186 12.235 24.8752 12.1606L24.4368 12.4154C24.3508 12.4654 24.3008 12.4992 24.286 12.5177C24.2709 12.536 24.2632 12.5587 24.2626 12.5857C24.2619 12.6128 24.2745 12.6487 24.3002 12.693L24.3545 12.7863C24.4389 12.9318 24.5406 13.029 24.6589 13.0779C24.7769 13.1269 24.9161 13.1305 25.0763 13.0884L25.1011 13.1311L24.5648 13.3487L23.7824 12.0023L23.8224 11.9791L23.8522 12.0304C23.8784 12.0755 23.9077 12.1072 23.9398 12.1252C23.9624 12.1389 23.9898 12.1435 24.0222 12.1389C24.0454 12.1363 24.0964 12.1125 24.1753 12.0665L25.2039 11.4691C25.2749 11.4278 25.3173 11.4006 25.3315 11.3872C25.3543 11.364 25.3669 11.3378 25.3692 11.3087C25.3739 11.2672 25.362 11.2211 25.3324 11.1706L25.3026 11.1192L25.3426 11.096L26.1001 12.3996L25.6389 12.6676L25.613 12.623C25.7132 12.5353 25.7757 12.4571 25.8015 12.3886C25.8272 12.3201 25.8306 12.2427 25.811 12.1559C25.8 12.1053 25.7604 12.021 25.6921 11.9034L25.5979 11.7411ZM25.6696 13.8156L25.1986 14.0085C25.1088 14.0453 25.0539 14.0742 25.0354 14.0949C25.0165 14.1155 25.0061 14.1427 25.0035 14.1761C25.0012 14.2099 25.0154 14.2648 25.0467 14.3412L25.0039 14.3586L24.654 13.505L24.6967 13.4874C24.7284 13.5646 24.7569 13.6142 24.7825 13.6356C24.808 13.6576 24.8348 13.669 24.862 13.6707C24.8897 13.6727 24.9486 13.6548 25.0384 13.618L26.1289 13.1711C26.2191 13.1341 26.2735 13.1054 26.292 13.0847C26.3112 13.0641 26.3214 13.0369 26.3239 13.0035C26.3263 12.9697 26.312 12.9148 26.2807 12.8384L26.3235 12.8208L26.6413 13.5963C26.7241 13.7982 26.7707 13.9511 26.7809 14.0564C26.7915 14.1612 26.7713 14.2589 26.7198 14.3491C26.669 14.439 26.5928 14.5045 26.4916 14.546C26.3686 14.5964 26.2484 14.5937 26.1314 14.5381C26.057 14.5024 25.9863 14.4388 25.9193 14.3471L25.5179 14.9789C25.467 15.0616 25.437 15.1178 25.4281 15.1475C25.4166 15.1914 25.419 15.2367 25.4347 15.282L25.3894 15.3005L25.1741 14.7751L25.714 13.9249L25.6691 13.8154L25.6696 13.8156ZM26.4856 13.4812L25.7576 13.7794L25.7864 13.8494C25.8332 13.9636 25.8787 14.0449 25.9225 14.0932C25.9668 14.1412 26.0227 14.1702 26.0901 14.1804C26.1576 14.1906 26.2352 14.1778 26.3224 14.1421C26.4492 14.0902 26.5307 14.0219 26.5667 13.9377C26.6026 13.8532 26.5937 13.7452 26.5394 13.6131L26.4856 13.4812ZM25.6081 16.1685L25.5632 16.18L25.3292 15.2707L25.3741 15.2592L25.389 15.3168C25.402 15.3673 25.4217 15.4058 25.4477 15.4319C25.4658 15.4511 25.4909 15.463 25.5232 15.4672C25.5462 15.4711 25.6019 15.4619 25.6902 15.4391L26.8421 15.1426C26.9321 15.1195 26.9872 15.1001 27.0072 15.0852C27.0272 15.0697 27.0421 15.0459 27.0515 15.0129C27.0613 14.9799 27.0596 14.9391 27.047 14.89L27.0321 14.8323L27.077 14.8208L27.311 15.7301L27.2661 15.7416L27.2512 15.684C27.2383 15.6338 27.2187 15.5959 27.1927 15.5697C27.1749 15.551 27.1495 15.5387 27.1168 15.5336C27.0938 15.5298 27.0381 15.5389 26.9498 15.5617L25.7978 15.8582C25.7079 15.8814 25.6528 15.9007 25.633 15.916C25.6132 15.932 25.5983 15.9558 25.5889 15.9888C25.5792 16.0217 25.5809 16.0626 25.5932 16.1109L25.6081 16.1685Z" fill="#231F20"/>
</g>
<path d="M42.346 8H40.762V0.331999H42.346V8ZM41.65 6.674H45.664V8H41.65V6.674ZM46.7268 8V0.331999H48.2748V8H46.7268ZM47.1888 8V6.686H51.8988V8H47.1888ZM47.6268 4.742V3.464H51.7608V4.742H47.6268ZM47.1828 1.634V0.331999H51.8508V1.634H47.1828ZM53.0762 8L53.3282 0.331999H55.5962L57.0362 5.21H57.1142L58.5482 0.331999H60.8102L61.0682 8H59.5442L59.4722 5.24L59.4062 2.054H59.3102L57.8042 7.106H56.3402L54.8282 2.054H54.7322L54.6662 5.246L54.6002 8H53.0762ZM63.6163 8V6.74H65.7643C66.1803 6.74 66.4763 6.658 66.6523 6.494C66.8283 6.326 66.9163 6.088 66.9163 5.78V5.636C66.9163 5.32 66.8263 5.08 66.6463 4.916C66.4703 4.752 66.1663 4.67 65.7343 4.67H63.5983V3.494H65.6983C66.0943 3.494 66.3763 3.412 66.5443 3.248C66.7123 3.084 66.7963 2.854 66.7963 2.558V2.48C66.7963 2.184 66.7143 1.958 66.5503 1.802C66.3863 1.646 66.1023 1.568 65.6983 1.568H63.5863V0.331999H65.8603C66.7483 0.331999 67.3863 0.49 67.7743 0.806C68.1623 1.122 68.3563 1.58 68.3563 2.18V2.282C68.3563 2.738 68.2423 3.092 68.0143 3.344C67.7903 3.596 67.4383 3.746 66.9583 3.794V3.854C67.4983 3.942 67.8903 4.134 68.1343 4.43C68.3823 4.726 68.5063 5.142 68.5063 5.678V5.876C68.5063 6.564 68.3023 7.09 67.8943 7.454C67.4903 7.818 66.8403 8 65.9443 8H63.6163ZM62.5003 8V0.331999H64.0303V8H62.5003ZM69.0787 8L71.3407 0.331999H73.7347L75.9907 8H74.4007L72.6127 1.37H72.4687L70.6687 8H69.0787ZM70.7947 6.044V4.79H74.2627V6.044H70.7947ZM79.1328 8.162C78.5488 8.162 78.0588 8.04 77.6628 7.796C77.2708 7.548 76.9748 7.192 76.7748 6.728C76.5788 6.26 76.4808 5.696 76.4808 5.036V3.512C76.4808 2.428 76.7688 1.6 77.3448 1.028C77.9248 0.456 78.7728 0.17 79.8888 0.17C80.2488 0.17 80.5788 0.198 80.8788 0.254C81.1828 0.306 81.4568 0.373999 81.7008 0.457999C81.9488 0.537999 82.1628 0.628 82.3428 0.728L82.4748 2.084C82.1828 1.932 81.8488 1.8 81.4728 1.688C81.0968 1.572 80.6688 1.514 80.1888 1.514C79.4688 1.514 78.9388 1.686 78.5988 2.03C78.2588 2.374 78.0888 2.892 78.0888 3.584V5.042C78.0888 5.61 78.2208 6.048 78.4848 6.356C78.7528 6.664 79.1628 6.818 79.7148 6.818C79.9748 6.818 80.1988 6.778 80.3868 6.698C80.5748 6.618 80.7308 6.51 80.8548 6.374C80.9788 6.238 81.0728 6.09 81.1368 5.93V4.322L81.3528 4.808L79.7748 4.814V3.566H82.6548V6.758L81.1068 6.752C81.0428 7.016 80.9388 7.254 80.7948 7.466C80.6508 7.678 80.4448 7.848 80.1768 7.976C79.9088 8.1 79.5608 8.162 79.1328 8.162ZM81.1788 6.422H82.6548V8H81.1248L81.1788 6.422ZM83.5279 8L85.7899 0.331999H88.1839L90.4399 8H88.8499L87.0619 1.37H86.9179L85.1179 8H83.5279ZM85.2439 6.044V4.79H88.7119V6.044H85.2439ZM43.06 20.156C42.704 20.156 42.37 20.13 42.058 20.078C41.75 20.026 41.47 19.962 41.218 19.886C40.97 19.806 40.756 19.726 40.576 19.646L40.438 18.158C40.75 18.322 41.12 18.47 41.548 18.602C41.976 18.73 42.432 18.794 42.916 18.794C43.428 18.794 43.798 18.72 44.026 18.572C44.254 18.424 44.368 18.196 44.368 17.888V17.822C44.368 17.622 44.318 17.458 44.218 17.33C44.122 17.198 43.96 17.082 43.732 16.982C43.504 16.882 43.194 16.78 42.802 16.676C42.25 16.524 41.796 16.352 41.44 16.16C41.088 15.964 40.828 15.722 40.66 15.434C40.492 15.142 40.408 14.776 40.408 14.336V14.264C40.408 13.592 40.634 13.076 41.086 12.716C41.542 12.356 42.214 12.176 43.102 12.176C43.654 12.176 44.128 12.226 44.524 12.326C44.92 12.426 45.252 12.542 45.52 12.674L45.658 14.06C45.358 13.9 45.014 13.768 44.626 13.664C44.242 13.556 43.822 13.502 43.366 13.502C43.026 13.502 42.756 13.534 42.556 13.598C42.36 13.662 42.218 13.756 42.13 13.88C42.046 14.004 42.004 14.154 42.004 14.33V14.348C42.004 14.528 42.048 14.684 42.136 14.816C42.228 14.948 42.39 15.07 42.622 15.182C42.854 15.29 43.184 15.402 43.612 15.518C44.156 15.67 44.6 15.834 44.944 16.01C45.292 16.186 45.55 16.414 45.718 16.694C45.886 16.974 45.97 17.344 45.97 17.804V17.912C45.97 18.652 45.728 19.212 45.244 19.592C44.764 19.968 44.036 20.156 43.06 20.156ZM47.1604 20V12.332H48.7084V20H47.1604ZM47.6224 20V18.686H52.3324V20H47.6224ZM48.0604 16.742V15.464H52.1944V16.742H48.0604ZM47.6164 13.634V12.332H52.2844V13.634H47.6164ZM57.9678 20L57.7938 18.506C57.7658 18.238 57.7098 18.014 57.6258 17.834C57.5418 17.654 57.4158 17.518 57.2478 17.426C57.0798 17.33 56.8478 17.282 56.5518 17.282L54.6978 17.276V16.064L56.6478 16.058C57.0838 16.058 57.3958 15.958 57.5838 15.758C57.7758 15.554 57.8718 15.264 57.8718 14.888V14.744C57.8718 14.372 57.7758 14.09 57.5838 13.898C57.3958 13.702 57.0798 13.604 56.6358 13.604H54.6798V12.332H56.8578C57.7578 12.332 58.4138 12.514 58.8258 12.878C59.2418 13.242 59.4498 13.76 59.4498 14.432V14.6C59.4498 15.104 59.3278 15.504 59.0838 15.8C58.8398 16.096 58.4518 16.272 57.9198 16.328V16.544L57.4818 16.328C57.9378 16.36 58.2898 16.456 58.5378 16.616C58.7898 16.776 58.9738 16.998 59.0898 17.282C59.2058 17.562 59.2938 17.91 59.3538 18.326L59.5878 20H57.9678ZM53.6058 20V12.332H55.1418V16.496L55.1538 17.078V20H53.6058ZM62.3598 20V12.626H63.9378V20H62.3598ZM60.1758 13.646V12.332H66.1098V13.646H60.1758ZM68.7952 20H67.2172V12.332H68.7952V20ZM70.3284 20V12.332H71.9004V20H70.3284ZM71.2284 17.144V15.824H75.2004V17.144H71.2284ZM70.7844 13.658V12.332H75.2904V13.658H70.7844ZM78.0765 20H76.4985V12.332H78.0765V20ZM84.0017 20L81.6497 16.604H81.0317V15.554H81.6497L83.9717 12.332H85.7537L82.9277 16.178L82.9217 15.818L85.8377 20H84.0017ZM79.6097 20V12.332H81.1757V20H79.6097ZM86.1295 20L88.3915 12.332H90.7855L93.0415 20H91.4515L89.6635 13.37H89.5195L87.7195 20H86.1295ZM87.8455 18.044V16.79H91.3135V18.044H87.8455ZM96.2631 20.156C95.9071 20.156 95.5731 20.13 95.2611 20.078C94.9531 20.026 94.6731 19.962 94.4211 19.886C94.1731 19.806 93.9591 19.726 93.7791 19.646L93.6411 18.158C93.9531 18.322 94.3231 18.47 94.7511 18.602C95.1791 18.73 95.6351 18.794 96.1191 18.794C96.6311 18.794 97.0011 18.72 97.2291 18.572C97.4571 18.424 97.5711 18.196 97.5711 17.888V17.822C97.5711 17.622 97.5211 17.458 97.4211 17.33C97.3251 17.198 97.1631 17.082 96.9351 16.982C96.7071 16.882 96.3971 16.78 96.0051 16.676C95.4531 16.524 94.9991 16.352 94.6431 16.16C94.2911 15.964 94.0311 15.722 93.8631 15.434C93.6951 15.142 93.6111 14.776 93.6111 14.336V14.264C93.6111 13.592 93.8371 13.076 94.2891 12.716C94.7451 12.356 95.4171 12.176 96.3051 12.176C96.8571 12.176 97.3311 12.226 97.7271 12.326C98.1231 12.426 98.4551 12.542 98.7231 12.674L98.8611 14.06C98.5611 13.9 98.2171 13.768 97.8291 13.664C97.4451 13.556 97.0251 13.502 96.5691 13.502C96.2291 13.502 95.9591 13.534 95.7591 13.598C95.5631 13.662 95.4211 13.756 95.3331 13.88C95.2491 14.004 95.2071 14.154 95.2071 14.33V14.348C95.2071 14.528 95.2511 14.684 95.3391 14.816C95.4311 14.948 95.5931 15.07 95.8251 15.182C96.0571 15.29 96.3871 15.402 96.8151 15.518C97.3591 15.67 97.8031 15.834 98.1471 16.01C98.4951 16.186 98.7531 16.414 98.9211 16.694C99.0891 16.974 99.1731 17.344 99.1731 17.804V17.912C99.1731 18.652 98.9311 19.212 98.4471 19.592C97.9671 19.968 97.2391 20.156 96.2631 20.156ZM101.948 20H100.37V12.332H101.948V20ZM41.812 29.696V28.412H43.768C44.2 28.412 44.512 28.312 44.704 28.112C44.9 27.908 44.998 27.614 44.998 27.23V26.792C44.998 26.4 44.902 26.106 44.71 25.91C44.518 25.71 44.206 25.61 43.774 25.61H41.812V24.332H43.864C44.796 24.332 45.478 24.542 45.91 24.962C46.346 25.382 46.564 25.978 46.564 26.75V27.278C46.564 28.05 46.346 28.646 45.91 29.066C45.478 29.486 44.796 29.696 43.864 29.696H41.812ZM40.762 32V24.332H42.31V28.778L42.316 29.492V32H40.762ZM52.0849 32L51.9109 30.506C51.8829 30.238 51.8269 30.014 51.7429 29.834C51.6589 29.654 51.5329 29.518 51.3649 29.426C51.1969 29.33 50.9649 29.282 50.6689 29.282L48.8149 29.276V28.064L50.7649 28.058C51.2009 28.058 51.5129 27.958 51.7009 27.758C51.8929 27.554 51.9889 27.264 51.9889 26.888V26.744C51.9889 26.372 51.8929 26.09 51.7009 25.898C51.5129 25.702 51.1969 25.604 50.7529 25.604H48.7969V24.332H50.9749C51.8749 24.332 52.5309 24.514 52.9429 24.878C53.3589 25.242 53.5669 25.76 53.5669 26.432V26.6C53.5669 27.104 53.4449 27.504 53.2009 27.8C52.9569 28.096 52.5689 28.272 52.0369 28.328V28.544L51.5989 28.328C52.0549 28.36 52.4069 28.456 52.6549 28.616C52.9069 28.776 53.0909 28.998 53.2069 29.282C53.3229 29.562 53.4109 29.91 53.4709 30.326L53.7049 32H52.0849ZM47.7229 32V24.332H49.2589V28.496L49.2709 29.078V32H47.7229ZM57.7945 32.174C56.7345 32.174 55.9325 31.898 55.3885 31.346C54.8485 30.79 54.5785 29.996 54.5785 28.964V27.404C54.5785 26.368 54.8485 25.57 55.3885 25.01C55.9325 24.45 56.7345 24.17 57.7945 24.17C58.8545 24.17 59.6545 24.45 60.1945 25.01C60.7385 25.57 61.0105 26.368 61.0105 27.404V28.964C61.0105 29.996 60.7405 30.79 60.2005 31.346C59.6605 31.898 58.8585 32.174 57.7945 32.174ZM57.7945 30.866C58.3345 30.866 58.7385 30.706 59.0065 30.386C59.2745 30.066 59.4085 29.616 59.4085 29.036V27.332C59.4085 26.732 59.2745 26.272 59.0065 25.952C58.7385 25.628 58.3345 25.466 57.7945 25.466C57.2585 25.466 56.8565 25.628 56.5885 25.952C56.3205 26.272 56.1865 26.732 56.1865 27.332V29.036C56.1865 29.616 56.3205 30.066 56.5885 30.386C56.8565 30.706 57.2585 30.866 57.7945 30.866ZM62.2893 32V24.332H63.8613V32H62.2893ZM63.1893 29.144V27.824H67.1613V29.144H63.1893ZM62.7453 25.658V24.332H67.2513V25.658H62.7453ZM68.4534 32V24.332H70.0014V32H68.4534ZM68.9154 32V30.686H73.6254V32H68.9154ZM69.3534 28.742V27.464H73.4874V28.742H69.3534ZM68.9094 25.634V24.332H73.5774V25.634H68.9094ZM77.1967 32.156C76.8407 32.156 76.5067 32.13 76.1947 32.078C75.8867 32.026 75.6067 31.962 75.3547 31.886C75.1067 31.806 74.8927 31.726 74.7127 31.646L74.5747 30.158C74.8867 30.322 75.2567 30.47 75.6847 30.602C76.1127 30.73 76.5687 30.794 77.0527 30.794C77.5647 30.794 77.9347 30.72 78.1627 30.572C78.3907 30.424 78.5047 30.196 78.5047 29.888V29.822C78.5047 29.622 78.4547 29.458 78.3547 29.33C78.2587 29.198 78.0967 29.082 77.8687 28.982C77.6407 28.882 77.3307 28.78 76.9387 28.676C76.3867 28.524 75.9327 28.352 75.5767 28.16C75.2247 27.964 74.9647 27.722 74.7967 27.434C74.6287 27.142 74.5447 26.776 74.5447 26.336V26.264C74.5447 25.592 74.7707 25.076 75.2227 24.716C75.6787 24.356 76.3507 24.176 77.2387 24.176C77.7907 24.176 78.2647 24.226 78.6607 24.326C79.0567 24.426 79.3887 24.542 79.6567 24.674L79.7947 26.06C79.4947 25.9 79.1507 25.768 78.7627 25.664C78.3787 25.556 77.9587 25.502 77.5027 25.502C77.1627 25.502 76.8927 25.534 76.6927 25.598C76.4967 25.662 76.3547 25.756 76.2667 25.88C76.1827 26.004 76.1407 26.154 76.1407 26.33V26.348C76.1407 26.528 76.1847 26.684 76.2727 26.816C76.3647 26.948 76.5267 27.07 76.7587 27.182C76.9907 27.29 77.3207 27.402 77.7487 27.518C78.2927 27.67 78.7367 27.834 79.0807 28.01C79.4287 28.186 79.6867 28.414 79.8547 28.694C80.0227 28.974 80.1067 29.344 80.1067 29.804V29.912C80.1067 30.652 79.8647 31.212 79.3807 31.592C78.9007 31.968 78.1727 32.156 77.1967 32.156ZM82.8812 32H81.3032V24.332H82.8812V32Z" fill="#231F20"/>
<defs>
<clipPath id="clip0_152_2189">
<rect width="32" height="32" fill="white"/>
</clipPath>
</defs>
</svg>
