<svg width="83" height="32" viewBox="0 0 83 32" fill="none" xmlns="http://www.w3.org/2000/svg">
<g clip-path="url(#clip0_102_377)">
<path fill-rule="evenodd" clip-rule="evenodd" d="M3.32642 20.2172H16.6547V6.99854H3.32642V20.2172Z" fill="#1B1918"/>
<path fill-rule="evenodd" clip-rule="evenodd" d="M-0.0338661 11.2275C0.458661 10.5164 0.848271 9.71247 1.89882 9.11837C2.21425 9.04753 2.54572 9.03216 2.80301 9.19522L9.28939 13.9808C9.49322 14.0363 9.69705 14.0216 9.90087 13.93L21.0606 0.0350281C21.4562 -0.037815 21.5565 0.193412 21.3653 0.677251C17.7138 6.17524 14.1325 11.738 9.99577 16.7796C9.75385 16.9012 9.50191 16.8491 9.20185 16.7362C6.48994 15.5546 3.47998 13.8037 0.44329 12.0034C0.0824156 11.7133 -0.054583 11.4587 -0.0338661 11.2275Z" fill="#E30016"/>
<path fill-rule="evenodd" clip-rule="evenodd" d="M9.39249 8.36389C10.3762 8.36389 11.1735 9.16116 11.1735 10.1449C11.1735 11.1286 10.3762 11.9259 9.39249 11.9259C8.40877 11.9259 7.61084 11.1286 7.61084 10.1449C7.61084 9.16116 8.40877 8.36389 9.39249 8.36389Z" fill="#FFEC00"/>
<path fill-rule="evenodd" clip-rule="evenodd" d="M1.24675 27.2196C2.87269 26.5941 4.59487 23.778 7.07287 18.5125C7.61017 17.5241 8.49899 17.0617 9.80616 17.2281C15.536 17.8529 15.778 19.7141 12.5067 24.1094C12.4118 23.8274 12.3804 23.4812 12.4987 22.986L13.2859 21.0387C13.453 19.2831 9.16059 17.5208 7.79863 21.0981C6.68994 23.2427 5.27318 25.1459 3.47749 26.7231C3.21686 27.0566 0.805015 27.5224 1.24675 27.2196Z" fill="#FFEC00"/>
<path fill-rule="evenodd" clip-rule="evenodd" d="M31.8609 13.7229C36.8369 14.4005 36.0751 22.0136 33.0384 22.5015C32.1188 22.6492 31.7987 23.0528 30.0044 23.0528H22.4741V22.6184H23.0689C23.7325 22.6184 23.917 21.8633 23.9143 21.3527L23.8461 7.38151C23.8434 6.92173 23.6697 6.86293 23.0689 6.86293H22.4741V6.42921H29.3648C30.6513 6.42921 30.3606 6.40983 31.099 6.71056C34.5093 8.10059 34.8334 11.6118 31.8609 13.7229ZM26.5039 13.5665C28.0162 13.8605 30.1213 13.7583 30.9968 12.2894C31.2975 11.7848 31.4505 11.2282 31.4505 10.6254C31.4505 8.99609 30.6686 7.07477 29.0273 7.10017L26.5039 7.1396V13.5665ZM26.548 22.0845C27.4609 22.2977 28.3691 22.3237 29.2539 22.4026C31.8121 22.6291 33.6492 20.8428 33.2522 18.0507C32.9415 15.8687 30.8511 14.7086 28.631 14.4125C28.1485 14.3484 27.7295 14.4212 27.3847 14.4366C27.0392 14.452 26.7612 14.4807 26.548 14.5168V22.0845Z" fill="#1B1918"/>
<path fill-rule="evenodd" clip-rule="evenodd" d="M45.844 12.0515L53.6001 18.9268V9.1538C53.6001 7.65817 53.8481 6.8041 52.3525 6.67713H51.5291V6.21802H57.1902V6.67713C55.4346 6.67713 55.1185 7.76577 55.1185 9.1538V23.4157H54.495L47.9003 17.5789V17.5822L40.1442 10.7069V20.4799C40.1442 21.8566 40.316 22.9559 42.1056 22.9559V23.4157H36.615V22.9559C38.688 22.8229 38.6259 22.5329 38.6259 20.4799V6.21802H39.2494L45.844 12.0542V12.0515Z" fill="#1B1918"/>
<path fill-rule="evenodd" clip-rule="evenodd" d="M68.0292 6.05298V9.29751H67.5955C67.2206 8.68669 67.28 8.45747 66.7675 7.99502C66.1246 7.41294 65.5659 7.29064 65.1008 7.04939C63.5383 6.24077 62.5005 6.87096 61.4853 7.7678C60.938 8.25231 61.0002 8.82035 61.1104 9.44586C61.4292 11.2616 63.811 12.544 64.929 13.3867C66.3003 14.4206 67.4084 15.1664 67.8494 15.6877C70.3996 18.7016 67.2841 23.1825 64.4131 23.1624L59.2513 23.127H58.8169L58.7988 19.0712H59.2332C59.2366 19.0892 59.3929 20.6791 59.4925 21.0092C59.7324 21.8038 60.3847 22.2689 61.2521 22.5142C63.1875 23.0608 66.6425 22.0791 66.6425 19.6025C66.6425 19.2088 66.5623 18.5239 66.3478 18.1229C65.9314 17.345 64.3229 15.9383 63.5136 15.4885C62.1436 14.7273 61.5769 14.037 60.9975 13.5832C60.4188 13.1288 59.9763 12.6222 59.679 12.0756C59.3776 11.5242 59.2285 10.9174 59.2285 10.2578C59.2285 9.11239 59.6709 8.12333 60.5511 7.29532C61.4319 6.46665 62.5573 6.05298 63.9166 6.05298C65.7216 6.05298 66.7982 6.05298 68.0292 6.05298Z" fill="#1B1918"/>
<mask id="mask0_102_377" style="mask-type:luminance" maskUnits="userSpaceOnUse" x="70" y="6" width="13" height="18">
<path d="M70.0867 6.13721H82.9351V23.0742H70.0867V6.13721Z" fill="white"/>
</mask>
<g mask="url(#mask0_102_377)">
<path fill-rule="evenodd" clip-rule="evenodd" d="M74.7397 15.1309V20.0676C74.7397 21.1288 74.848 21.7871 75.0692 22.0417C75.3666 22.4066 75.817 22.589 76.4198 22.589H77.0313V23.0474H70.1807V22.589H70.7835C71.4591 22.589 71.268 22.3564 71.556 21.8933C71.7137 21.6394 71.7932 21.0272 71.7932 20.0676V9.14175C71.7932 8.08051 71.689 7.42092 71.4751 7.16764C71.1671 6.80208 71.3896 6.62031 70.7835 6.62031H70.1807V6.16187H76.0422C77.4737 6.16187 79.1818 6.31824 80.0091 6.62833C80.8331 6.93775 81.5288 7.46502 82.0955 8.20348C82.6629 8.94193 82.9443 9.81672 82.9443 10.8265C82.9443 12.2065 82.5139 13.3272 81.6538 14.1886C80.4415 15.4029 77.8492 15.6168 76.1785 15.3942C75.9667 15.3682 75.7482 15.3348 75.5229 15.294V14.5602C75.6352 14.5776 75.7428 14.5923 75.8451 14.6043C76.9925 14.758 78.5042 14.5702 79.3054 13.6667C79.8962 13.0004 80.1936 12.1383 80.1936 11.0811C80.1936 10.3513 80.0533 9.67237 79.7719 9.04819C79.0181 7.37681 76.4158 6.99856 74.7397 7.41824V14.4179L74.7758 14.4252V15.1396L74.7397 15.1309Z" fill="#1B1918"/>
</g>
<path fill-rule="evenodd" clip-rule="evenodd" d="M3.02026 31.9557V28.6591H4.11157C4.33411 28.6591 4.51188 28.6918 4.64687 28.7586C4.78053 28.8255 4.88545 28.9284 4.96163 29.0674C5.03782 29.205 5.07591 29.3501 5.07591 29.5024C5.07591 29.6428 5.0425 29.7758 4.975 29.9001C4.90817 30.0244 4.80659 30.1246 4.67026 30.2015C4.84669 30.2596 4.98168 30.3592 5.07591 30.5009C5.17081 30.6412 5.21826 30.8076 5.21826 30.9994C5.21826 31.1544 5.18885 31.2981 5.13138 31.4304C5.07391 31.5634 5.00307 31.6657 4.9182 31.7378C4.83332 31.8087 4.72707 31.8635 4.60009 31.9002C4.47178 31.937 4.3154 31.9557 4.13029 31.9557H3.02026ZM3.40653 30.0451H4.03539C4.2058 30.0451 4.32877 30.0317 4.40228 30.0063C4.50052 29.9736 4.57403 29.9181 4.62348 29.8413C4.67294 29.7644 4.69833 29.6688 4.69833 29.5532C4.69833 29.443 4.67494 29.3467 4.62816 29.2639C4.58272 29.1797 4.51589 29.1222 4.43035 29.0914C4.34414 29.0614 4.19645 29.046 3.98794 29.046H3.40653V30.0451ZM3.40653 31.5688H4.13096C4.25526 31.5688 4.3428 31.5634 4.39359 31.5527C4.48181 31.5354 4.55599 31.5053 4.61546 31.4632C4.67494 31.4204 4.72372 31.3596 4.76249 31.2787C4.80125 31.1979 4.81996 31.1057 4.81996 31.0001C4.81996 30.8764 4.79256 30.7702 4.73642 30.6786C4.68029 30.5871 4.60343 30.5236 4.50453 30.4868C4.40629 30.4501 4.26394 30.4314 4.0795 30.4314H3.40653V31.5688Z" fill="#1B1918"/>
<path fill-rule="evenodd" clip-rule="evenodd" d="M5.42749 31.9557L6.54353 28.6591H6.96655L8.15076 31.9557H7.71303L7.37621 30.9566H6.15124L5.83581 31.9557H5.42749ZM6.26418 30.6018H7.25592L6.95252 29.6882C6.86096 29.4102 6.79213 29.181 6.74401 28.9999C6.70392 29.2144 6.65045 29.4256 6.58363 29.6341L6.26418 30.6018Z" fill="#1B1918"/>
<path fill-rule="evenodd" clip-rule="evenodd" d="M8.45605 31.9557V28.6591H9.45848C9.68436 28.6591 9.85745 28.6744 9.97641 28.7058C10.1428 28.7493 10.2852 28.8288 10.4028 28.9424C10.5565 29.0894 10.6714 29.2766 10.7469 29.5051C10.8231 29.7343 10.8612 29.9956 10.8612 30.2897C10.8612 30.5396 10.8358 30.7615 10.7844 30.9546C10.7329 31.1484 10.6661 31.3088 10.5859 31.4351C10.5044 31.5621 10.4168 31.6617 10.3206 31.7338C10.225 31.8067 10.1094 31.8622 9.97373 31.8996C9.8374 31.937 9.68169 31.9557 9.50593 31.9557H8.45605ZM8.84232 31.5688H9.46249C9.65429 31.5688 9.80466 31.5487 9.91359 31.508C10.0225 31.4672 10.1094 31.4104 10.1742 31.3369C10.2651 31.2333 10.3359 31.0936 10.3867 30.9185C10.4375 30.7441 10.4629 30.5323 10.4629 30.283C10.4629 29.9375 10.4128 29.6722 10.3139 29.4864C10.2143 29.3006 10.0927 29.1763 9.94967 29.1135C9.84676 29.068 9.68102 29.046 9.45247 29.046H8.84232V31.5688Z" fill="#1B1918"/>
<path fill-rule="evenodd" clip-rule="evenodd" d="M11.0713 31.9557L12.1873 28.6591H12.6104L13.7952 31.9557H13.3568L13.02 30.9566H11.7957L11.4796 31.9557H11.0713ZM11.9087 30.6018H12.8997L12.5963 29.6882C12.5048 29.4102 12.4359 29.181 12.3878 28.9999C12.3477 29.2144 12.2943 29.4256 12.2274 29.6341L11.9087 30.6018Z" fill="#1B1918"/>
<path fill-rule="evenodd" clip-rule="evenodd" d="M14.0964 31.9557V28.6591H14.4914L16.0178 31.2467V28.6591H16.3873V31.9557H15.9924L14.466 29.3681V31.9557H14.0964Z" fill="#1B1918"/>
<path fill-rule="evenodd" clip-rule="evenodd" d="M18.1589 31.9557V28.6591H18.5546L20.0809 31.2467V28.6591H20.4505V31.9557H20.0549L18.5285 29.3681V31.9557H18.1589Z" fill="#1B1918"/>
<path fill-rule="evenodd" clip-rule="evenodd" d="M20.7778 31.9557L21.8939 28.6591H22.3169L23.5011 31.9557H23.0634L22.7266 30.9566H21.5016L21.1862 31.9557H20.7778ZM21.6145 30.6018H22.6063L22.3029 29.6882C22.2113 29.4102 22.1425 29.181 22.0944 28.9999C22.0543 29.2144 22.0008 29.4256 21.934 29.6341L21.6145 30.6018Z" fill="#1B1918"/>
<mask id="mask1_102_377" style="mask-type:luminance" maskUnits="userSpaceOnUse" x="23" y="28" width="4" height="5">
<path d="M23.5527 28.5488H26.119V32.0219H23.5527V28.5488Z" fill="white"/>
</mask>
<g mask="url(#mask1_102_377)">
<path fill-rule="evenodd" clip-rule="evenodd" d="M23.6807 30.8964L24.0422 30.8596C24.0589 31.0254 24.099 31.161 24.1618 31.268C24.2246 31.3736 24.3222 31.4598 24.4545 31.5259C24.5869 31.5908 24.7352 31.6242 24.901 31.6242C25.048 31.6242 25.177 31.5994 25.2892 31.5493C25.4022 31.4999 25.485 31.4317 25.5398 31.3448C25.5946 31.2579 25.6227 31.1637 25.6227 31.0621C25.6227 30.9592 25.596 30.8697 25.5432 30.7922C25.4904 30.7153 25.4035 30.6511 25.2812 30.5977C25.2037 30.5643 25.0306 30.5108 24.7633 30.4373C24.496 30.3644 24.3089 30.2963 24.2019 30.2321C24.0629 30.1493 23.96 30.0463 23.8925 29.924C23.8243 29.8024 23.7903 29.6648 23.7903 29.5137C23.7903 29.3466 23.8324 29.1909 23.9159 29.0466C23.9988 28.9016 24.1204 28.7913 24.2808 28.7165C24.4405 28.6409 24.6183 28.6035 24.8141 28.6035C25.0293 28.6035 25.2197 28.6429 25.3841 28.7218C25.5485 28.8 25.6755 28.9156 25.7644 29.0693C25.8526 29.2223 25.9 29.3954 25.9067 29.5886L25.5372 29.6213C25.5178 29.4135 25.4503 29.2558 25.336 29.1502C25.2217 29.0432 25.0527 28.9905 24.8288 28.9905C24.5962 28.9905 24.4258 29.0386 24.3195 29.1355C24.2133 29.2324 24.1598 29.3487 24.1598 29.485C24.1598 29.6033 24.1979 29.7008 24.2728 29.7777C24.3476 29.8539 24.5407 29.9327 24.8535 30.0123C25.1663 30.0931 25.3808 30.1626 25.4971 30.2228C25.6661 30.311 25.7911 30.4226 25.872 30.5583C25.9522 30.6932 25.9923 30.849 25.9923 31.0254C25.9923 31.2011 25.9482 31.3655 25.8599 31.5206C25.7711 31.6756 25.6441 31.7959 25.4784 31.8821C25.3126 31.9677 25.1262 32.0104 24.9183 32.0104C24.6557 32.0104 24.4358 31.967 24.2581 31.8801C24.0803 31.7932 23.9413 31.6629 23.8404 31.4878C23.7388 31.3141 23.686 31.1169 23.6807 30.8964Z" fill="#1B1918"/>
</g>
<path fill-rule="evenodd" clip-rule="evenodd" d="M26.582 31.9557H26.9676V28.6591H26.582V31.9557Z" fill="#1B1918"/>
<mask id="mask2_102_377" style="mask-type:luminance" maskUnits="userSpaceOnUse" x="27" y="28" width="4" height="5">
<path d="M27.4875 28.5488H30.3959V32.0219H27.4875V28.5488Z" fill="white"/>
</mask>
<g mask="url(#mask2_102_377)">
<path fill-rule="evenodd" clip-rule="evenodd" d="M27.5276 30.3511C27.5276 29.8044 27.6579 29.3761 27.9172 29.0673C28.1765 28.7579 28.5106 28.6035 28.921 28.6035C29.1903 28.6035 29.4315 28.6764 29.6481 28.8214C29.8632 28.9664 30.0276 29.1689 30.1406 29.4295C30.2535 29.6888 30.3103 29.9835 30.3103 30.3123C30.3103 30.6465 30.2509 30.9459 30.1319 31.2092C30.0129 31.4725 29.8439 31.6723 29.626 31.8073C29.4075 31.9429 29.1716 32.0104 28.919 32.0104C28.645 32.0104 28.4004 31.9356 28.1845 31.7859C27.9693 31.6362 27.8056 31.4324 27.694 31.1731C27.5831 30.9144 27.5276 30.6405 27.5276 30.3511ZM27.9259 30.3584C27.9259 30.7554 28.0201 31.0675 28.2079 31.2954C28.3964 31.5233 28.6329 31.6375 28.917 31.6375C29.207 31.6375 29.4449 31.5226 29.632 31.2927C29.8191 31.0621 29.9127 30.7353 29.9127 30.3117C29.9127 30.0437 29.8726 29.8098 29.7924 29.6106C29.7129 29.4108 29.5953 29.2558 29.4422 29.1462C29.2872 29.0366 29.1148 28.9811 28.923 28.9811C28.651 28.9811 28.4164 29.0874 28.2206 29.2985C28.0241 29.5104 27.9259 29.8639 27.9259 30.3584Z" fill="#1B1918"/>
</g>
<path fill-rule="evenodd" clip-rule="evenodd" d="M30.8015 31.9557V28.6591H31.1971L32.7235 31.2467V28.6591H33.0931V31.9557H32.6974L31.1711 29.3681V31.9557H30.8015Z" fill="#1B1918"/>
<path fill-rule="evenodd" clip-rule="evenodd" d="M33.4207 31.9557L34.5367 28.6591H34.9597L36.1439 31.9557H35.7062L35.3694 30.9566H34.1444L33.829 31.9557H33.4207ZM34.258 30.6018H35.2491L34.9457 29.6882C34.8541 29.4102 34.7853 29.181 34.7372 28.9999C34.6971 29.2144 34.6436 29.4256 34.5768 29.6341L34.258 30.6018Z" fill="#1B1918"/>
<path fill-rule="evenodd" clip-rule="evenodd" d="M36.4333 31.9557V28.6591H36.8196V31.5688H38.2498V31.9557H36.4333Z" fill="#1B1918"/>
<mask id="mask3_102_377" style="mask-type:luminance" maskUnits="userSpaceOnUse" x="39" y="28" width="4" height="5">
<path d="M39.4629 28.5488H42.0291V32.0219H39.4629V28.5488Z" fill="white"/>
</mask>
<g mask="url(#mask3_102_377)">
<path fill-rule="evenodd" clip-rule="evenodd" d="M39.5603 30.8964L39.9218 30.8596C39.9392 31.0254 39.9786 31.161 40.0421 31.268C40.105 31.3736 40.2025 31.4598 40.3342 31.5259C40.4665 31.5908 40.6155 31.6242 40.7806 31.6242C40.9276 31.6242 41.0566 31.5994 41.1695 31.5493C41.2818 31.4999 41.3653 31.4317 41.4201 31.3448C41.4749 31.2579 41.5023 31.1637 41.5023 31.0621C41.5023 30.9592 41.4763 30.8697 41.4235 30.7922C41.3707 30.7153 41.2831 30.6511 41.1615 30.5977C41.0833 30.5643 40.9109 30.5108 40.6429 30.4373C40.3756 30.3644 40.1892 30.2963 40.0816 30.2321C39.9432 30.1493 39.8403 30.0463 39.7721 29.924C39.704 29.8024 39.6699 29.6648 39.6699 29.5137C39.6699 29.3466 39.712 29.1909 39.7955 29.0466C39.8784 28.9016 40 28.7913 40.1604 28.7165C40.3201 28.6409 40.4986 28.6035 40.6937 28.6035C40.9096 28.6035 41.0994 28.6429 41.2644 28.7218C41.4288 28.8 41.5551 28.9156 41.644 29.0693C41.7329 29.2223 41.7803 29.3954 41.787 29.5886L41.4168 29.6213C41.3974 29.4135 41.3306 29.2558 41.2163 29.1502C41.1014 29.0432 40.9323 28.9905 40.7091 28.9905C40.4759 28.9905 40.3061 29.0386 40.1999 29.1355C40.0936 29.2324 40.0401 29.3487 40.0401 29.485C40.0401 29.6033 40.0776 29.7008 40.1531 29.7777C40.2273 29.8539 40.4204 29.9327 40.7331 30.0123C41.0459 30.0931 41.2604 30.1626 41.3774 30.2228C41.5458 30.311 41.6708 30.4226 41.7516 30.5583C41.8325 30.6932 41.8719 30.849 41.8719 31.0254C41.8719 31.2011 41.8285 31.3655 41.7396 31.5206C41.6507 31.6756 41.5244 31.7959 41.358 31.8821C41.1923 31.9677 41.0058 32.0104 40.798 32.0104C40.5353 32.0104 40.3155 31.967 40.1384 31.8801C39.9599 31.7932 39.8209 31.6629 39.72 31.4878C39.6184 31.3141 39.5656 31.1169 39.5603 30.8964Z" fill="#1B1918"/>
</g>
<path fill-rule="evenodd" clip-rule="evenodd" d="M42.4053 31.9557V28.6591H44.5057V29.046H42.7909V30.0584H44.3961V30.4454H42.7909V31.5688H44.5745V31.9557H42.4053Z" fill="#1B1918"/>
<path fill-rule="evenodd" clip-rule="evenodd" d="M45.115 31.9557V28.6591H46.4041C46.6634 28.6591 46.8606 28.6891 46.9955 28.7479C47.1299 28.8067 47.2375 28.9117 47.3183 29.0614C47.3985 29.2104 47.4386 29.3761 47.4386 29.5572C47.4386 29.7918 47.3718 29.9889 47.2381 30.1493C47.1051 30.3097 46.8993 30.4106 46.62 30.4547C46.7222 30.5095 46.7997 30.565 46.8525 30.6185C46.9648 30.7354 47.0711 30.8818 47.1706 31.0575L47.6739 31.9557H47.1927L46.8084 31.2694C46.6968 31.0709 46.6039 30.9199 46.5311 30.8143C46.4582 30.7094 46.3934 30.6365 46.3359 30.5944C46.2791 30.553 46.2197 30.5236 46.1602 30.5069C46.1168 30.4968 46.0459 30.4915 45.9463 30.4915H45.5006V31.9557H45.115ZM45.5006 30.1139H46.3266C46.503 30.1139 46.64 30.0932 46.7389 30.0518C46.8372 30.011 46.9127 29.9448 46.9635 29.854C47.0149 29.7631 47.0403 29.6648 47.0403 29.5586C47.0403 29.4022 46.9909 29.2739 46.8913 29.173C46.7924 29.0727 46.6353 29.0226 46.4202 29.0226H45.5006V30.1139Z" fill="#1B1918"/>
<path fill-rule="evenodd" clip-rule="evenodd" d="M48.7068 31.9557V29.046H47.7478V28.6591H50.0514V29.046H49.0931V31.9557H48.7068Z" fill="#1B1918"/>
<path fill-rule="evenodd" clip-rule="evenodd" d="M50.5142 31.9557H50.9004V28.6591H50.5142V31.9557Z" fill="#1B1918"/>
<path fill-rule="evenodd" clip-rule="evenodd" d="M51.5986 31.9557V28.6591H53.5607V29.046H51.9842V30.0725H53.3495V30.4594H51.9842V31.9557H51.5986Z" fill="#1B1918"/>
<path fill-rule="evenodd" clip-rule="evenodd" d="M54.1248 31.9557H54.5104V28.6591H54.1248V31.9557Z" fill="#1B1918"/>
<path fill-rule="evenodd" clip-rule="evenodd" d="M55.1719 31.9557V28.6591H55.5581V30.2937L57.003 28.6591H57.5242L56.3046 29.9956L57.577 31.9557H57.0691L56.034 30.2917L55.5581 30.8136V31.9557H55.1719Z" fill="#1B1918"/>
<path fill-rule="evenodd" clip-rule="evenodd" d="M57.5798 31.9557L58.6952 28.6591H59.1182L60.3031 31.9557H59.8647L59.5286 30.9566H58.3036L57.9875 31.9557H57.5798ZM58.4165 30.6018H59.4076L59.1042 29.6882C59.0133 29.4102 58.9438 29.181 58.8957 28.9999C58.8556 29.2144 58.8021 29.4256 58.7353 29.6341L58.4165 30.6018Z" fill="#1B1918"/>
<mask id="mask4_102_377" style="mask-type:luminance" maskUnits="userSpaceOnUse" x="60" y="28" width="3" height="5">
<path d="M60.3352 28.5488H62.9014V32.0219H60.3352V28.5488Z" fill="white"/>
</mask>
<g mask="url(#mask4_102_377)">
<path fill-rule="evenodd" clip-rule="evenodd" d="M60.4822 30.8964L60.8437 30.8596C60.8611 31.0254 60.9005 31.161 60.964 31.268C61.0268 31.3736 61.1244 31.4598 61.2561 31.5259C61.3884 31.5908 61.5374 31.6242 61.7025 31.6242C61.8495 31.6242 61.9785 31.5994 62.0914 31.5493C62.2037 31.4999 62.2866 31.4317 62.342 31.3448C62.3968 31.2579 62.4242 31.1637 62.4242 31.0621C62.4242 30.9592 62.3982 30.8697 62.3454 30.7922C62.2926 30.7153 62.205 30.6511 62.0834 30.5977C62.0052 30.5643 61.8328 30.5108 61.5648 30.4373C61.2975 30.3644 61.1104 30.2963 61.0034 30.2321C60.8651 30.1493 60.7622 30.0463 60.694 29.924C60.6259 29.8024 60.5918 29.6648 60.5918 29.5137C60.5918 29.3466 60.6339 29.1909 60.7174 29.0466C60.8003 28.9016 60.9219 28.7913 61.0823 28.7165C61.242 28.6409 61.4205 28.6035 61.6156 28.6035C61.8314 28.6035 62.0212 28.6429 62.1856 28.7218C62.3507 28.8 62.477 28.9156 62.5659 29.0693C62.6548 29.2223 62.7022 29.3954 62.7089 29.5886L62.3387 29.6213C62.3193 29.4135 62.2525 29.2558 62.1382 29.1502C62.0232 29.0432 61.8542 28.9905 61.631 28.9905C61.3977 28.9905 61.228 29.0386 61.1217 29.1355C61.0155 29.2324 60.962 29.3487 60.962 29.485C60.962 29.6033 60.9994 29.7008 61.0749 29.7777C61.1491 29.8539 61.3423 29.9327 61.655 30.0123C61.9678 30.0931 62.1823 30.1626 62.2992 30.2228C62.4677 30.311 62.5926 30.4226 62.6735 30.5583C62.7544 30.6932 62.7938 30.849 62.7938 31.0254C62.7938 31.2011 62.7503 31.3655 62.6615 31.5206C62.5726 31.6756 62.4463 31.7959 62.2799 31.8821C62.1141 31.9677 61.9277 32.0104 61.7198 32.0104C61.4572 32.0104 61.2373 31.967 61.0596 31.8801C60.8818 31.7932 60.7428 31.6629 60.6419 31.4878C60.5403 31.3141 60.4875 31.1169 60.4822 30.8964Z" fill="#1B1918"/>
</g>
<path fill-rule="evenodd" clip-rule="evenodd" d="M63.3833 31.9557H63.7696V28.6591H63.3833V31.9557Z" fill="#1B1918"/>
<path fill-rule="evenodd" clip-rule="evenodd" d="M65.5759 31.9557V28.6591H66.6739C66.8671 28.6591 67.0147 28.6698 67.117 28.6905C67.26 28.7172 67.3796 28.7687 67.4765 28.8442C67.5734 28.9197 67.651 29.0259 67.7104 29.1616C67.7692 29.2973 67.798 29.447 67.798 29.6107C67.798 29.89 67.7198 30.1266 67.5621 30.3204C67.405 30.5142 67.1197 30.6111 66.708 30.6111H65.9615V31.9557H65.5759ZM65.9615 30.2242H66.7134C66.9626 30.2242 67.1384 30.1721 67.2433 30.0671C67.3482 29.9622 67.3997 29.8145 67.3997 29.6234C67.3997 29.4864 67.3696 29.3681 67.3081 29.2699C67.246 29.1716 67.1651 29.1061 67.0649 29.0747C67 29.0554 66.8798 29.046 66.706 29.046H65.9615V30.2242Z" fill="#1B1918"/>
<path fill-rule="evenodd" clip-rule="evenodd" d="M68.2937 31.9557V28.6591H69.5828C69.8421 28.6591 70.0393 28.6891 70.1743 28.7479C70.3086 28.8067 70.4162 28.9117 70.497 29.0614C70.5779 29.2104 70.6173 29.3761 70.6173 29.5572C70.6173 29.7918 70.5505 29.9889 70.4168 30.1493C70.2839 30.3097 70.078 30.4106 69.7987 30.4547C69.9009 30.5095 69.9785 30.565 70.0312 30.6185C70.1435 30.7354 70.2498 30.8818 70.3493 31.0575L70.8526 31.9557H70.3721L69.9871 31.2694C69.8755 31.0709 69.7826 30.9199 69.7105 30.8143C69.637 30.7094 69.5721 30.6365 69.5147 30.5944C69.4579 30.553 69.399 30.5236 69.3389 30.5069C69.2961 30.4968 69.2246 30.4915 69.125 30.4915H68.68V31.9557H68.2937ZM68.68 30.1139H69.506C69.6817 30.1139 69.8187 30.0932 69.9176 30.0518C70.0165 30.011 70.0914 29.9448 70.1422 29.854C70.1936 29.7631 70.2197 29.6648 70.2197 29.5586C70.2197 29.4022 70.1702 29.2739 70.0707 29.173C69.9711 29.0727 69.8141 29.0226 69.5989 29.0226H68.68V30.1139Z" fill="#1B1918"/>
<mask id="mask5_102_377" style="mask-type:luminance" maskUnits="userSpaceOnUse" x="70" y="28" width="5" height="5">
<path d="M70.9421 28.5488H74.0216V32.0219H70.9421V28.5488Z" fill="white"/>
</mask>
<g mask="url(#mask5_102_377)">
<path fill-rule="evenodd" clip-rule="evenodd" d="M71.1018 30.3512C71.1018 29.8045 71.2315 29.3762 71.4907 29.0674C71.7507 28.758 72.0849 28.6036 72.4952 28.6036C72.7638 28.6036 73.0058 28.6765 73.2216 28.8215C73.4368 28.9665 73.6019 29.169 73.7148 29.4296C73.8277 29.6889 73.8845 29.9836 73.8845 30.3124C73.8845 30.6466 73.8251 30.946 73.7061 31.2093C73.5865 31.4726 73.4181 31.6724 73.2002 31.8074C72.9817 31.9431 72.7458 32.0106 72.4932 32.0106C72.2192 32.0106 71.9746 31.9357 71.7587 31.786C71.5435 31.6363 71.3791 31.4325 71.2682 31.1732C71.1573 30.9146 71.1018 30.6406 71.1018 30.3512ZM71.5001 30.3586C71.5001 30.7555 71.5937 31.0676 71.7821 31.2955C71.9706 31.5234 72.2065 31.6377 72.4912 31.6377C72.7812 31.6377 73.0185 31.5227 73.2062 31.2928C73.3934 31.0623 73.4863 30.7355 73.4863 30.3118C73.4863 30.0438 73.4468 29.8099 73.3666 29.6107C73.2871 29.4109 73.1695 29.2559 73.0158 29.1463C72.8614 29.0367 72.689 28.9812 72.4972 28.9812C72.2252 28.9812 71.9906 29.0875 71.7942 29.2987C71.5983 29.5105 71.5001 29.864 71.5001 30.3586Z" fill="#1B1918"/>
</g>
<path fill-rule="evenodd" clip-rule="evenodd" d="M74.3999 31.9557V28.6591H76.3627V29.046H74.7862V30.0725H76.1515V30.4594H74.7862V31.9557H74.3999Z" fill="#1B1918"/>
<path fill-rule="evenodd" clip-rule="evenodd" d="M76.8699 31.9557V28.6591H78.9703V29.046H77.2555V30.0584H78.86V30.4454H77.2555V31.5688H79.0391V31.9557H76.8699Z" fill="#1B1918"/>
<mask id="mask6_102_377" style="mask-type:luminance" maskUnits="userSpaceOnUse" x="79" y="28" width="3" height="5">
<path d="M79.3252 28.5488H81.8914V32.0219H79.3252V28.5488Z" fill="white"/>
</mask>
<g mask="url(#mask6_102_377)">
<path fill-rule="evenodd" clip-rule="evenodd" d="M79.4453 30.8964L79.8069 30.8596C79.8236 31.0254 79.8637 31.161 79.9265 31.268C79.9893 31.3736 80.0869 31.4598 80.2192 31.5259C80.3515 31.5908 80.4999 31.6242 80.6656 31.6242C80.8126 31.6242 80.9416 31.5994 81.0539 31.5493C81.1668 31.4999 81.2497 31.4317 81.3045 31.3448C81.3593 31.2579 81.3874 31.1637 81.3874 31.0621C81.3874 30.9592 81.3606 30.8697 81.3078 30.7922C81.255 30.7153 81.1682 30.6511 81.0459 30.5977C80.9683 30.5643 80.7953 30.5108 80.5279 30.4373C80.2606 30.3644 80.0735 30.2963 79.9666 30.2321C79.8276 30.1493 79.7247 30.0463 79.6572 29.924C79.589 29.8024 79.5549 29.6648 79.5549 29.5137C79.5549 29.3466 79.597 29.1909 79.6805 29.0466C79.7634 28.9016 79.885 28.7913 80.0454 28.7165C80.2052 28.6409 80.3829 28.6035 80.5787 28.6035C80.7939 28.6035 80.9844 28.6429 81.1488 28.7218C81.3132 28.8 81.4401 28.9156 81.529 29.0693C81.6172 29.2223 81.6647 29.3954 81.6714 29.5886L81.3018 29.6213C81.2824 29.4135 81.2149 29.2558 81.1007 29.1502C80.9864 29.0432 80.8173 28.9905 80.5934 28.9905C80.3609 28.9905 80.1905 29.0386 80.0842 29.1355C79.9779 29.2324 79.9245 29.3487 79.9245 29.485C79.9245 29.6033 79.9626 29.7008 80.0374 29.7777C80.1123 29.8539 80.3054 29.9327 80.6182 30.0123C80.9309 30.0931 81.1454 30.1626 81.2617 30.2228C81.4308 30.311 81.5558 30.4226 81.6366 30.5583C81.7168 30.6932 81.7569 30.849 81.7569 31.0254C81.7569 31.2011 81.7128 31.3655 81.6239 31.5206C81.5357 31.6756 81.4087 31.7959 81.243 31.8821C81.0773 31.9677 80.8908 32.0104 80.683 32.0104C80.4203 32.0104 80.2005 31.967 80.0227 31.8801C79.8449 31.7932 79.7059 31.6629 79.605 31.4878C79.5035 31.3141 79.4507 31.1169 79.4453 30.8964Z" fill="#1B1918"/>
</g>
<path fill-rule="evenodd" clip-rule="evenodd" d="M82.3464 31.9557H82.732V28.6591H82.3464V31.9557Z" fill="#1B1918"/>
</g>
<defs>
<clipPath id="clip0_102_377">
<rect width="82.8788" height="32" fill="white"/>
</clipPath>
</defs>
</svg>
